<svg width="1663" height="234" viewBox="0 0 1663 234" fill="none" xmlns="http://www.w3.org/2000/svg">
<g id="Graphic Side">
<g clip-path="url(#clip0_207_13)">
<path d="M0 0H1663V218C1663 226.837 1655.84 234 1647 234H16C7.16341 234 0 226.837 0 218V0Z" fill="url(#paint0_radial_207_13)"/>
<g id="Big Circles">
<g id="Ellipse 5" style="mix-blend-mode:multiply" opacity="0.75" filter="url(#filter0_i_207_13)">
<ellipse cx="884" cy="823.307" rx="1056.31" ry="1078" transform="rotate(90 884 823.307)" fill="white"/>
</g>
<g id="Ellipse 4" style="mix-blend-mode:multiply" opacity="0.75" filter="url(#filter1_i_207_13)">
<ellipse cx="641.164" cy="823.307" rx="817.689" ry="835.164" transform="rotate(90 641.164 823.307)" fill="white"/>
</g>
<g id="Ellipse 3" style="mix-blend-mode:multiply" opacity="0.75" filter="url(#filter2_i_207_13)">
<ellipse cx="609.228" cy="901.642" rx="694.765" ry="709.226" transform="rotate(90 609.228 901.642)" fill="white"/>
</g>
</g>
<g id="Frame 35289">
<g id="Frame 35288">
<path id="Selamat Datang, Arviansyah Eka!" d="M57.8018 71.2756C57.6882 70.1297 57.2005 69.2396 56.3388 68.6051C55.477 67.9706 54.3075 67.6534 52.8303 67.6534C51.8265 67.6534 50.9789 67.7955 50.2876 68.0795C49.5964 68.3542 49.0661 68.7377 48.6967 69.2301C48.3369 69.7225 48.157 70.2812 48.157 70.9062C48.138 71.4271 48.2469 71.8816 48.4837 72.2699C48.7299 72.6581 49.0661 72.9943 49.4922 73.2784C49.9183 73.553 50.4107 73.7945 50.9695 74.0028C51.5282 74.2017 52.1248 74.3722 52.7592 74.5142L55.3729 75.1392C56.6418 75.4233 57.8066 75.8021 58.8672 76.2756C59.9278 76.7491 60.8464 77.3314 61.6229 78.0227C62.3994 78.714 63.0007 79.5284 63.4268 80.4659C63.8625 81.4034 64.085 82.4782 64.0945 83.6903C64.085 85.4706 63.6304 87.0142 62.7308 88.321C61.8407 89.6184 60.5528 90.6269 58.8672 91.3466C57.1911 92.0568 55.1693 92.4119 52.8018 92.4119C50.4534 92.4119 48.4079 92.0521 46.6655 91.3324C44.9325 90.6127 43.5784 89.5473 42.603 88.1364C41.6371 86.7159 41.1304 84.9593 41.0831 82.8665H47.0348C47.1011 83.8419 47.3804 84.6562 47.8729 85.3097C48.3748 85.9536 49.0424 86.4413 49.8757 86.7727C50.7185 87.0947 51.6702 87.2557 52.7308 87.2557C53.7725 87.2557 54.6768 87.1042 55.4439 86.8011C56.2204 86.4981 56.8217 86.0767 57.2479 85.5369C57.674 84.9972 57.8871 84.3769 57.8871 83.6761C57.8871 83.0227 57.6929 82.4735 57.3047 82.0284C56.9259 81.5833 56.3672 81.2045 55.6286 80.892C54.8994 80.5795 54.0045 80.2955 52.9439 80.0398L49.7763 79.2443C47.3236 78.6477 45.3871 77.715 43.9666 76.446C42.5462 75.1771 41.8407 73.4678 41.8501 71.3182C41.8407 69.5568 42.3094 68.018 43.2564 66.7017C44.2128 65.3854 45.5244 64.358 47.1911 63.6193C48.8577 62.8807 50.7517 62.5114 52.8729 62.5114C55.032 62.5114 56.9164 62.8807 58.5263 63.6193C60.1456 64.358 61.4051 65.3854 62.3047 66.7017C63.2043 68.018 63.6683 69.5426 63.6967 71.2756H57.8018ZM78.0611 92.4261C75.8168 92.4261 73.8849 91.9716 72.2656 91.0625C70.6558 90.1439 69.4152 88.8466 68.544 87.1705C67.6728 85.4848 67.2372 83.4915 67.2372 81.1903C67.2372 78.946 67.6728 76.9763 68.544 75.2812C69.4152 73.5862 70.6416 72.2652 72.223 71.3182C73.8139 70.3712 75.6795 69.8977 77.8196 69.8977C79.259 69.8977 80.599 70.1297 81.8395 70.5938C83.0895 71.0483 84.1785 71.7348 85.1065 72.6534C86.044 73.572 86.7732 74.7273 87.294 76.1193C87.8149 77.5019 88.0753 79.1212 88.0753 80.9773V82.6392H69.652V78.8892H82.3793C82.3793 78.018 82.1899 77.2462 81.8111 76.5739C81.4323 75.9015 80.9067 75.3759 80.2344 74.9972C79.5715 74.6089 78.7997 74.4148 77.919 74.4148C77.0005 74.4148 76.1861 74.6278 75.4759 75.054C74.7751 75.4706 74.2259 76.0341 73.8281 76.7443C73.4304 77.4451 73.2268 78.2263 73.2173 79.0881V82.6534C73.2173 83.733 73.4162 84.6657 73.8139 85.4517C74.2211 86.2377 74.794 86.8438 75.5327 87.2699C76.2713 87.696 77.1473 87.9091 78.1605 87.9091C78.8329 87.9091 79.4484 87.8144 80.0071 87.625C80.5658 87.4356 81.044 87.1515 81.4418 86.7727C81.8395 86.3939 82.1425 85.9299 82.3509 85.3807L87.9474 85.75C87.6634 87.0947 87.081 88.2689 86.2003 89.2727C85.3291 90.267 84.2022 91.0436 82.8196 91.6023C81.4465 92.1515 79.8603 92.4261 78.0611 92.4261ZM98.0753 62.9091V92H92.0241V62.9091H98.0753ZM109.144 92.4119C107.752 92.4119 106.512 92.1705 105.423 91.6875C104.334 91.1951 103.472 90.4706 102.837 89.5142C102.212 88.5483 101.9 87.3456 101.9 85.9062C101.9 84.6941 102.122 83.6761 102.567 82.8523C103.013 82.0284 103.619 81.3655 104.386 80.8636C105.153 80.3617 106.024 79.983 106.999 79.7273C107.984 79.4716 109.016 79.2917 110.096 79.1875C111.365 79.0549 112.388 78.9318 113.164 78.8182C113.941 78.6951 114.504 78.5152 114.854 78.2784C115.205 78.0417 115.38 77.6913 115.38 77.2273V77.142C115.38 76.2424 115.096 75.5464 114.528 75.054C113.969 74.5616 113.174 74.3153 112.141 74.3153C111.052 74.3153 110.186 74.5568 109.542 75.0398C108.898 75.5133 108.472 76.1098 108.263 76.8295L102.667 76.375C102.951 75.0492 103.51 73.9034 104.343 72.9375C105.176 71.9621 106.251 71.214 107.567 70.6932C108.893 70.1629 110.427 69.8977 112.17 69.8977C113.382 69.8977 114.542 70.0398 115.65 70.3239C116.767 70.608 117.757 71.0483 118.619 71.6449C119.49 72.2415 120.176 73.0085 120.678 73.946C121.18 74.8741 121.431 75.9867 121.431 77.2841V92H115.692V88.9744H115.522C115.172 89.6562 114.703 90.2576 114.116 90.7784C113.529 91.2898 112.823 91.6922 111.999 91.9858C111.175 92.2699 110.224 92.4119 109.144 92.4119ZM110.877 88.2358C111.767 88.2358 112.553 88.0606 113.235 87.7102C113.917 87.3504 114.452 86.8674 114.84 86.2614C115.228 85.6553 115.423 84.9687 115.423 84.2017V81.8864C115.233 82.0095 114.973 82.1231 114.641 82.2273C114.319 82.322 113.955 82.4119 113.548 82.4972C113.14 82.5729 112.733 82.6439 112.326 82.7102C111.919 82.767 111.549 82.8191 111.218 82.8665C110.508 82.9706 109.888 83.1364 109.357 83.3636C108.827 83.5909 108.415 83.8987 108.121 84.2869C107.828 84.6657 107.681 85.1392 107.681 85.7074C107.681 86.5312 107.979 87.161 108.576 87.5966C109.182 88.0227 109.949 88.2358 110.877 88.2358ZM126.126 92V70.1818H131.893V74.0312H132.148C132.603 72.7528 133.361 71.7443 134.421 71.0057C135.482 70.267 136.751 69.8977 138.228 69.8977C139.724 69.8977 140.998 70.2718 142.049 71.0199C143.1 71.7585 143.801 72.7623 144.151 74.0312H144.379C144.824 72.7812 145.629 71.7822 146.793 71.0341C147.968 70.2765 149.355 69.8977 150.955 69.8977C152.991 69.8977 154.644 70.5464 155.913 71.8438C157.191 73.1316 157.83 74.9593 157.83 77.3267V92H151.793V78.5199C151.793 77.3078 151.471 76.3987 150.827 75.7926C150.183 75.1866 149.379 74.8835 148.413 74.8835C147.314 74.8835 146.457 75.2339 145.842 75.9347C145.226 76.6259 144.918 77.5398 144.918 78.6761V92H139.052V78.392C139.052 77.322 138.744 76.4697 138.129 75.8352C137.522 75.2008 136.722 74.8835 135.728 74.8835C135.056 74.8835 134.45 75.054 133.91 75.3949C133.379 75.7263 132.958 76.1951 132.646 76.8011C132.333 77.3977 132.177 78.0985 132.177 78.9034V92H126.126ZM168.832 92.4119C167.44 92.4119 166.199 92.1705 165.11 91.6875C164.021 91.1951 163.159 90.4706 162.525 89.5142C161.9 88.5483 161.587 87.3456 161.587 85.9062C161.587 84.6941 161.81 83.6761 162.255 82.8523C162.7 82.0284 163.306 81.3655 164.073 80.8636C164.84 80.3617 165.711 79.983 166.687 79.7273C167.672 79.4716 168.704 79.2917 169.783 79.1875C171.052 79.0549 172.075 78.9318 172.852 78.8182C173.628 78.6951 174.192 78.5152 174.542 78.2784C174.892 78.0417 175.067 77.6913 175.067 77.2273V77.142C175.067 76.2424 174.783 75.5464 174.215 75.054C173.656 74.5616 172.861 74.3153 171.829 74.3153C170.74 74.3153 169.873 74.5568 169.229 75.0398C168.585 75.5133 168.159 76.1098 167.951 76.8295L162.354 76.375C162.638 75.0492 163.197 73.9034 164.031 72.9375C164.864 71.9621 165.939 71.214 167.255 70.6932C168.581 70.1629 170.115 69.8977 171.857 69.8977C173.069 69.8977 174.229 70.0398 175.337 70.3239C176.455 70.608 177.444 71.0483 178.306 71.6449C179.177 72.2415 179.864 73.0085 180.366 73.946C180.868 74.8741 181.119 75.9867 181.119 77.2841V92H175.38V88.9744H175.21C174.859 89.6562 174.39 90.2576 173.803 90.7784C173.216 91.2898 172.511 91.6922 171.687 91.9858C170.863 92.2699 169.911 92.4119 168.832 92.4119ZM170.565 88.2358C171.455 88.2358 172.241 88.0606 172.923 87.7102C173.604 87.3504 174.139 86.8674 174.528 86.2614C174.916 85.6553 175.11 84.9687 175.11 84.2017V81.8864C174.921 82.0095 174.66 82.1231 174.329 82.2273C174.007 82.322 173.642 82.4119 173.235 82.4972C172.828 82.5729 172.421 82.6439 172.013 82.7102C171.606 82.767 171.237 82.8191 170.906 82.8665C170.195 82.9706 169.575 83.1364 169.045 83.3636C168.514 83.5909 168.103 83.8987 167.809 84.2869C167.515 84.6657 167.369 85.1392 167.369 85.7074C167.369 86.5312 167.667 87.161 168.263 87.5966C168.87 88.0227 169.637 88.2358 170.565 88.2358ZM197.418 70.1818V74.7273H184.279V70.1818H197.418ZM187.262 64.9545H193.313V85.2955C193.313 85.8542 193.398 86.2898 193.569 86.6023C193.739 86.9053 193.976 87.1184 194.279 87.2415C194.592 87.3646 194.951 87.4261 195.359 87.4261C195.643 87.4261 195.927 87.4025 196.211 87.3551C196.495 87.2983 196.713 87.2557 196.864 87.2273L197.816 91.7301C197.513 91.8248 197.087 91.9337 196.538 92.0568C195.988 92.1894 195.321 92.2699 194.535 92.2983C193.076 92.3551 191.798 92.161 190.7 91.7159C189.611 91.2708 188.763 90.5795 188.157 89.642C187.551 88.7045 187.253 87.5208 187.262 86.0909V64.9545ZM221.044 92H210.732V62.9091H221.129C224.055 62.9091 226.574 63.4915 228.686 64.6562C230.798 65.8116 232.422 67.4735 233.558 69.642C234.704 71.8106 235.277 74.4053 235.277 77.4261C235.277 80.4564 234.704 83.0606 233.558 85.2386C232.422 87.4167 230.788 89.0881 228.658 90.2528C226.536 91.4176 223.999 92 221.044 92ZM216.882 86.7301H220.788C222.607 86.7301 224.136 86.4081 225.376 85.7642C226.626 85.1108 227.564 84.1023 228.189 82.7386C228.823 81.3655 229.141 79.5947 229.141 77.4261C229.141 75.2765 228.823 73.5199 228.189 72.1562C227.564 70.7926 226.631 69.7888 225.391 69.1449C224.15 68.5009 222.621 68.179 220.803 68.179H216.882V86.7301ZM245.941 92.4119C244.549 92.4119 243.308 92.1705 242.219 91.6875C241.13 91.1951 240.269 90.4706 239.634 89.5142C239.009 88.5483 238.697 87.3456 238.697 85.9062C238.697 84.6941 238.919 83.6761 239.364 82.8523C239.809 82.0284 240.415 81.3655 241.183 80.8636C241.95 80.3617 242.821 79.983 243.796 79.7273C244.781 79.4716 245.813 79.2917 246.893 79.1875C248.162 79.0549 249.184 78.9318 249.961 78.8182C250.737 78.6951 251.301 78.5152 251.651 78.2784C252.002 78.0417 252.177 77.6913 252.177 77.2273V77.142C252.177 76.2424 251.893 75.5464 251.325 75.054C250.766 74.5616 249.97 74.3153 248.938 74.3153C247.849 74.3153 246.983 74.5568 246.339 75.0398C245.695 75.5133 245.269 76.1098 245.06 76.8295L239.464 76.375C239.748 75.0492 240.307 73.9034 241.14 72.9375C241.973 71.9621 243.048 71.214 244.364 70.6932C245.69 70.1629 247.224 69.8977 248.967 69.8977C250.179 69.8977 251.339 70.0398 252.447 70.3239C253.564 70.608 254.554 71.0483 255.415 71.6449C256.287 72.2415 256.973 73.0085 257.475 73.946C257.977 74.8741 258.228 75.9867 258.228 77.2841V92H252.489V88.9744H252.319C251.969 89.6562 251.5 90.2576 250.913 90.7784C250.326 91.2898 249.62 91.6922 248.796 91.9858C247.972 92.2699 247.021 92.4119 245.941 92.4119ZM247.674 88.2358C248.564 88.2358 249.35 88.0606 250.032 87.7102C250.714 87.3504 251.249 86.8674 251.637 86.2614C252.025 85.6553 252.219 84.9687 252.219 84.2017V81.8864C252.03 82.0095 251.77 82.1231 251.438 82.2273C251.116 82.322 250.752 82.4119 250.344 82.4972C249.937 82.5729 249.53 82.6439 249.123 82.7102C248.716 82.767 248.346 82.8191 248.015 82.8665C247.305 82.9706 246.684 83.1364 246.154 83.3636C245.624 83.5909 245.212 83.8987 244.918 84.2869C244.625 84.6657 244.478 85.1392 244.478 85.7074C244.478 86.5312 244.776 87.161 245.373 87.5966C245.979 88.0227 246.746 88.2358 247.674 88.2358ZM274.528 70.1818V74.7273H261.388V70.1818H274.528ZM264.371 64.9545H270.423V85.2955C270.423 85.8542 270.508 86.2898 270.678 86.6023C270.849 86.9053 271.085 87.1184 271.388 87.2415C271.701 87.3646 272.061 87.4261 272.468 87.4261C272.752 87.4261 273.036 87.4025 273.32 87.3551C273.604 87.2983 273.822 87.2557 273.974 87.2273L274.925 91.7301C274.622 91.8248 274.196 91.9337 273.647 92.0568C273.098 92.1894 272.43 92.2699 271.644 92.2983C270.186 92.3551 268.907 92.161 267.809 91.7159C266.72 91.2708 265.872 90.5795 265.266 89.642C264.66 88.7045 264.362 87.5208 264.371 86.0909V64.9545ZM284.691 92.4119C283.299 92.4119 282.058 92.1705 280.969 91.6875C279.88 91.1951 279.019 90.4706 278.384 89.5142C277.759 88.5483 277.447 87.3456 277.447 85.9062C277.447 84.6941 277.669 83.6761 278.114 82.8523C278.559 82.0284 279.165 81.3655 279.933 80.8636C280.7 80.3617 281.571 79.983 282.546 79.7273C283.531 79.4716 284.563 79.2917 285.643 79.1875C286.912 79.0549 287.934 78.9318 288.711 78.8182C289.487 78.6951 290.051 78.5152 290.401 78.2784C290.752 78.0417 290.927 77.6913 290.927 77.2273V77.142C290.927 76.2424 290.643 75.5464 290.075 75.054C289.516 74.5616 288.72 74.3153 287.688 74.3153C286.599 74.3153 285.733 74.5568 285.089 75.0398C284.445 75.5133 284.019 76.1098 283.81 76.8295L278.214 76.375C278.498 75.0492 279.057 73.9034 279.89 72.9375C280.723 71.9621 281.798 71.214 283.114 70.6932C284.44 70.1629 285.974 69.8977 287.717 69.8977C288.929 69.8977 290.089 70.0398 291.197 70.3239C292.314 70.608 293.304 71.0483 294.165 71.6449C295.037 72.2415 295.723 73.0085 296.225 73.946C296.727 74.8741 296.978 75.9867 296.978 77.2841V92H291.239V88.9744H291.069C290.719 89.6562 290.25 90.2576 289.663 90.7784C289.076 91.2898 288.37 91.6922 287.546 91.9858C286.722 92.2699 285.771 92.4119 284.691 92.4119ZM286.424 88.2358C287.314 88.2358 288.1 88.0606 288.782 87.7102C289.464 87.3504 289.999 86.8674 290.387 86.2614C290.775 85.6553 290.969 84.9687 290.969 84.2017V81.8864C290.78 82.0095 290.52 82.1231 290.188 82.2273C289.866 82.322 289.502 82.4119 289.094 82.4972C288.687 82.5729 288.28 82.6439 287.873 82.7102C287.466 82.767 287.096 82.8191 286.765 82.8665C286.055 82.9706 285.434 83.1364 284.904 83.3636C284.374 83.5909 283.962 83.8987 283.668 84.2869C283.375 84.6657 283.228 85.1392 283.228 85.7074C283.228 86.5312 283.526 87.161 284.123 87.5966C284.729 88.0227 285.496 88.2358 286.424 88.2358ZM307.724 79.3864V92H301.673V70.1818H307.44V74.0312H307.695C308.178 72.7623 308.988 71.7585 310.124 71.0199C311.261 70.2718 312.638 69.8977 314.258 69.8977C315.773 69.8977 317.094 70.2292 318.221 70.892C319.348 71.5549 320.224 72.5019 320.849 73.733C321.474 74.9545 321.786 76.4129 321.786 78.108V92H315.735V79.1875C315.745 77.8523 315.404 76.8106 314.712 76.0625C314.021 75.3049 313.069 74.9261 311.857 74.9261C311.043 74.9261 310.323 75.1013 309.698 75.4517C309.083 75.8021 308.6 76.3134 308.249 76.9858C307.908 77.6487 307.733 78.4489 307.724 79.3864ZM336.385 100.636C334.425 100.636 332.744 100.366 331.342 99.8267C329.95 99.2964 328.842 98.572 328.018 97.6534C327.195 96.7348 326.66 95.7027 326.413 94.5568L332.01 93.804C332.18 94.2396 332.45 94.6468 332.82 95.0256C333.189 95.4044 333.677 95.7074 334.283 95.9347C334.898 96.1714 335.646 96.2898 336.527 96.2898C337.843 96.2898 338.928 95.9678 339.78 95.3239C340.642 94.6894 341.072 93.6241 341.072 92.1278V88.1364H340.817C340.552 88.7424 340.154 89.3153 339.624 89.8551C339.093 90.3949 338.411 90.8352 337.578 91.1761C336.745 91.517 335.75 91.6875 334.595 91.6875C332.957 91.6875 331.465 91.3087 330.121 90.5511C328.786 89.7841 327.72 88.6146 326.925 87.0426C326.139 85.4612 325.746 83.4631 325.746 81.0483C325.746 78.5767 326.148 76.5123 326.953 74.8551C327.758 73.1979 328.828 71.9574 330.163 71.1335C331.508 70.3097 332.981 69.8977 334.581 69.8977C335.803 69.8977 336.825 70.1061 337.649 70.5227C338.473 70.9299 339.136 71.4413 339.638 72.0568C340.149 72.6629 340.542 73.2595 340.817 73.8466H341.044V70.1818H347.053V92.2131C347.053 94.0691 346.598 95.6222 345.689 96.8722C344.78 98.1222 343.52 99.0597 341.911 99.6847C340.31 100.319 338.468 100.636 336.385 100.636ZM336.513 87.142C337.488 87.142 338.312 86.9006 338.984 86.4176C339.666 85.9252 340.187 85.2244 340.547 84.3153C340.916 83.3968 341.101 82.2983 341.101 81.0199C341.101 79.7415 340.921 78.6335 340.561 77.696C340.201 76.7491 339.68 76.0152 338.999 75.4943C338.317 74.9735 337.488 74.7131 336.513 74.7131C335.518 74.7131 334.68 74.983 333.999 75.5227C333.317 76.053 332.801 76.7917 332.45 77.7386C332.1 78.6856 331.925 79.7794 331.925 81.0199C331.925 82.2794 332.1 83.3684 332.45 84.2869C332.81 85.196 333.326 85.9015 333.999 86.4034C334.68 86.8958 335.518 87.142 336.513 87.142ZM358.445 88.0227L358.288 89.5852C358.165 90.8352 357.929 92.0805 357.578 93.321C357.237 94.571 356.877 95.7027 356.499 96.7159C356.129 97.7292 355.831 98.5246 355.604 99.1023H351.683C351.825 98.5436 352.019 97.7623 352.266 96.7585C352.512 95.7642 352.744 94.6468 352.962 93.4062C353.179 92.1657 353.317 90.9015 353.374 89.6136L353.445 88.0227H358.445ZM376.996 92H370.405L380.447 62.9091H388.374L398.402 92H391.811L384.524 69.5568H384.297L376.996 92ZM376.584 80.5653H392.152V85.3665H376.584V80.5653ZM401.79 92V70.1818H407.656V73.9886H407.884C408.281 72.6345 408.949 71.6117 409.886 70.9205C410.824 70.2197 411.903 69.8693 413.125 69.8693C413.428 69.8693 413.755 69.8883 414.105 69.9261C414.455 69.964 414.763 70.0161 415.028 70.0824V75.4517C414.744 75.3665 414.351 75.2907 413.849 75.2244C413.348 75.1581 412.888 75.125 412.472 75.125C411.581 75.125 410.786 75.3191 410.085 75.7074C409.394 76.0862 408.845 76.6165 408.438 77.2983C408.04 77.9801 407.841 78.7661 407.841 79.6562V92H401.79ZM439.162 70.1818L431.534 92H424.716L417.088 70.1818H423.48L428.011 85.7926H428.239L432.756 70.1818H439.162ZM442.259 92V70.1818H448.31V92H442.259ZM445.298 67.3693C444.399 67.3693 443.627 67.071 442.983 66.4744C442.348 65.8684 442.031 65.1439 442.031 64.3011C442.031 63.4678 442.348 62.7528 442.983 62.1562C443.627 61.5502 444.399 61.2472 445.298 61.2472C446.198 61.2472 446.965 61.5502 447.599 62.1562C448.243 62.7528 448.565 63.4678 448.565 64.3011C448.565 65.1439 448.243 65.8684 447.599 66.4744C446.965 67.071 446.198 67.3693 445.298 67.3693ZM459.379 92.4119C457.987 92.4119 456.746 92.1705 455.657 91.6875C454.568 91.1951 453.706 90.4706 453.072 89.5142C452.447 88.5483 452.134 87.3456 452.134 85.9062C452.134 84.6941 452.357 83.6761 452.802 82.8523C453.247 82.0284 453.853 81.3655 454.62 80.8636C455.387 80.3617 456.258 79.983 457.234 79.7273C458.219 79.4716 459.251 79.2917 460.33 79.1875C461.599 79.0549 462.622 78.9318 463.398 78.8182C464.175 78.6951 464.738 78.5152 465.089 78.2784C465.439 78.0417 465.614 77.6913 465.614 77.2273V77.142C465.614 76.2424 465.33 75.5464 464.762 75.054C464.203 74.5616 463.408 74.3153 462.376 74.3153C461.287 74.3153 460.42 74.5568 459.776 75.0398C459.132 75.5133 458.706 76.1098 458.498 76.8295L452.901 76.375C453.185 75.0492 453.744 73.9034 454.577 72.9375C455.411 71.9621 456.486 71.214 457.802 70.6932C459.128 70.1629 460.662 69.8977 462.404 69.8977C463.616 69.8977 464.776 70.0398 465.884 70.3239C467.002 70.608 467.991 71.0483 468.853 71.6449C469.724 72.2415 470.411 73.0085 470.913 73.946C471.415 74.8741 471.665 75.9867 471.665 77.2841V92H465.927V88.9744H465.756C465.406 89.6562 464.937 90.2576 464.35 90.7784C463.763 91.2898 463.058 91.6922 462.234 91.9858C461.41 92.2699 460.458 92.4119 459.379 92.4119ZM461.112 88.2358C462.002 88.2358 462.788 88.0606 463.469 87.7102C464.151 87.3504 464.686 86.8674 465.075 86.2614C465.463 85.6553 465.657 84.9687 465.657 84.2017V81.8864C465.468 82.0095 465.207 82.1231 464.876 82.2273C464.554 82.322 464.189 82.4119 463.782 82.4972C463.375 82.5729 462.968 82.6439 462.56 82.7102C462.153 82.767 461.784 82.8191 461.452 82.8665C460.742 82.9706 460.122 83.1364 459.592 83.3636C459.061 83.5909 458.649 83.8987 458.356 84.2869C458.062 84.6657 457.915 85.1392 457.915 85.7074C457.915 86.5312 458.214 87.161 458.81 87.5966C459.416 88.0227 460.183 88.2358 461.112 88.2358ZM482.411 79.3864V92H476.36V70.1818H482.127V74.0312H482.383C482.866 72.7623 483.675 71.7585 484.812 71.0199C485.948 70.2718 487.326 69.8977 488.945 69.8977C490.46 69.8977 491.781 70.2292 492.908 70.892C494.035 71.5549 494.911 72.5019 495.536 73.733C496.161 74.9545 496.474 76.4129 496.474 78.108V92H490.423V79.1875C490.432 77.8523 490.091 76.8106 489.4 76.0625C488.709 75.3049 487.757 74.9261 486.545 74.9261C485.73 74.9261 485.011 75.1013 484.386 75.4517C483.77 75.8021 483.287 76.3134 482.937 76.9858C482.596 77.6487 482.421 78.4489 482.411 79.3864ZM519.396 76.4034L513.857 76.7443C513.762 76.2708 513.558 75.8447 513.246 75.4659C512.933 75.0777 512.521 74.7699 512.01 74.5426C511.508 74.3059 510.907 74.1875 510.206 74.1875C509.268 74.1875 508.478 74.3864 507.834 74.7841C507.19 75.1723 506.868 75.6932 506.868 76.3466C506.868 76.8674 507.076 77.3078 507.493 77.6676C507.91 78.0275 508.625 78.3163 509.638 78.5341L513.587 79.3295C515.708 79.7652 517.289 80.4659 518.331 81.4318C519.373 82.3977 519.893 83.6667 519.893 85.2386C519.893 86.6686 519.472 87.9233 518.629 89.0028C517.796 90.0824 516.65 90.9252 515.192 91.5312C513.743 92.1278 512.071 92.4261 510.178 92.4261C507.289 92.4261 504.988 91.8248 503.274 90.6222C501.57 89.41 500.571 87.7623 500.277 85.679L506.229 85.3665C506.409 86.2472 506.844 86.9195 507.536 87.3835C508.227 87.8381 509.112 88.0653 510.192 88.0653C511.252 88.0653 512.105 87.8617 512.749 87.4545C513.402 87.0379 513.733 86.5028 513.743 85.8494C513.733 85.3002 513.501 84.8504 513.047 84.5C512.592 84.1402 511.892 83.8655 510.945 83.6761L507.166 82.9233C505.036 82.4972 503.449 81.7585 502.408 80.7074C501.375 79.6562 500.859 78.3163 500.859 76.6875C500.859 75.286 501.238 74.0786 501.996 73.0653C502.763 72.0521 503.838 71.2708 505.22 70.7216C506.612 70.1723 508.241 69.8977 510.107 69.8977C512.862 69.8977 515.031 70.4801 516.612 71.6449C518.203 72.8097 519.131 74.3958 519.396 76.4034ZM527.44 100.182C526.673 100.182 525.953 100.12 525.281 99.9972C524.618 99.8835 524.068 99.7367 523.633 99.5568L524.996 95.0398C525.707 95.2576 526.346 95.3759 526.914 95.3949C527.492 95.4138 527.989 95.2813 528.406 94.9972C528.832 94.7131 529.177 94.2301 529.442 93.5483L529.798 92.625L521.971 70.1818H528.335L532.852 86.2045H533.079L537.638 70.1818H544.045L535.565 94.358C535.157 95.5322 534.603 96.5549 533.903 97.4261C533.211 98.3068 532.335 98.9839 531.275 99.4574C530.214 99.9403 528.936 100.182 527.44 100.182ZM552.777 92.4119C551.385 92.4119 550.144 92.1705 549.055 91.6875C547.966 91.1951 547.105 90.4706 546.47 89.5142C545.845 88.5483 545.533 87.3456 545.533 85.9062C545.533 84.6941 545.755 83.6761 546.2 82.8523C546.645 82.0284 547.251 81.3655 548.018 80.8636C548.786 80.3617 549.657 79.983 550.632 79.7273C551.617 79.4716 552.649 79.2917 553.729 79.1875C554.998 79.0549 556.02 78.9318 556.797 78.8182C557.573 78.6951 558.137 78.5152 558.487 78.2784C558.838 78.0417 559.013 77.6913 559.013 77.2273V77.142C559.013 76.2424 558.729 75.5464 558.161 75.054C557.602 74.5616 556.806 74.3153 555.774 74.3153C554.685 74.3153 553.819 74.5568 553.175 75.0398C552.531 75.5133 552.105 76.1098 551.896 76.8295L546.3 76.375C546.584 75.0492 547.143 73.9034 547.976 72.9375C548.809 71.9621 549.884 71.214 551.2 70.6932C552.526 70.1629 554.06 69.8977 555.803 69.8977C557.015 69.8977 558.175 70.0398 559.283 70.3239C560.4 70.608 561.39 71.0483 562.251 71.6449C563.123 72.2415 563.809 73.0085 564.311 73.946C564.813 74.8741 565.064 75.9867 565.064 77.2841V92H559.325V88.9744H559.155C558.804 89.6562 558.336 90.2576 557.749 90.7784C557.161 91.2898 556.456 91.6922 555.632 91.9858C554.808 92.2699 553.857 92.4119 552.777 92.4119ZM554.51 88.2358C555.4 88.2358 556.186 88.0606 556.868 87.7102C557.55 87.3504 558.085 86.8674 558.473 86.2614C558.861 85.6553 559.055 84.9687 559.055 84.2017V81.8864C558.866 82.0095 558.606 82.1231 558.274 82.2273C557.952 82.322 557.588 82.4119 557.18 82.4972C556.773 82.5729 556.366 82.6439 555.959 82.7102C555.552 82.767 555.182 82.8191 554.851 82.8665C554.141 82.9706 553.52 83.1364 552.99 83.3636C552.46 83.5909 552.048 83.8987 551.754 84.2869C551.461 84.6657 551.314 85.1392 551.314 85.7074C551.314 86.5312 551.612 87.161 552.209 87.5966C552.815 88.0227 553.582 88.2358 554.51 88.2358ZM575.81 79.3864V92H569.759V62.9091H575.639V74.0312H575.895C576.387 72.7434 577.183 71.7348 578.281 71.0057C579.38 70.267 580.758 69.8977 582.415 69.8977C583.93 69.8977 585.251 70.2292 586.378 70.892C587.514 71.5455 588.395 72.4877 589.02 73.7188C589.654 74.9403 589.967 76.4034 589.957 78.108V92H583.906V79.1875C583.916 77.8428 583.575 76.7964 582.884 76.0483C582.202 75.3002 581.245 74.9261 580.014 74.9261C579.19 74.9261 578.461 75.1013 577.827 75.4517C577.202 75.8021 576.709 76.3134 576.349 76.9858C575.999 77.6487 575.819 78.4489 575.81 79.3864ZM604.091 92V62.9091H623.693V67.9801H610.241V74.9119H622.685V79.983H610.241V86.929H623.75V92H604.091ZM633.952 85.7216L633.967 78.4631H634.847L641.836 70.1818H648.782L639.393 81.1477H637.958L633.952 85.7216ZM628.469 92V62.9091H634.521V92H628.469ZM642.106 92L635.685 82.4972L639.719 78.2216L649.194 92H642.106ZM657.972 92.4119C656.58 92.4119 655.34 92.1705 654.251 91.6875C653.162 91.1951 652.3 90.4706 651.665 89.5142C651.04 88.5483 650.728 87.3456 650.728 85.9062C650.728 84.6941 650.951 83.6761 651.396 82.8523C651.841 82.0284 652.447 81.3655 653.214 80.8636C653.981 80.3617 654.852 79.983 655.827 79.7273C656.812 79.4716 657.844 79.2917 658.924 79.1875C660.193 79.0549 661.216 78.9318 661.992 78.8182C662.769 78.6951 663.332 78.5152 663.683 78.2784C664.033 78.0417 664.208 77.6913 664.208 77.2273V77.142C664.208 76.2424 663.924 75.5464 663.356 75.054C662.797 74.5616 662.002 74.3153 660.969 74.3153C659.88 74.3153 659.014 74.5568 658.37 75.0398C657.726 75.5133 657.3 76.1098 657.092 76.8295L651.495 76.375C651.779 75.0492 652.338 73.9034 653.171 72.9375C654.004 71.9621 655.079 71.214 656.396 70.6932C657.721 70.1629 659.255 69.8977 660.998 69.8977C662.21 69.8977 663.37 70.0398 664.478 70.3239C665.595 70.608 666.585 71.0483 667.447 71.6449C668.318 72.2415 669.004 73.0085 669.506 73.946C670.008 74.8741 670.259 75.9867 670.259 77.2841V92H664.521V88.9744H664.35C664 89.6562 663.531 90.2576 662.944 90.7784C662.357 91.2898 661.651 91.6922 660.827 91.9858C660.004 92.2699 659.052 92.4119 657.972 92.4119ZM659.705 88.2358C660.595 88.2358 661.381 88.0606 662.063 87.7102C662.745 87.3504 663.28 86.8674 663.668 86.2614C664.057 85.6553 664.251 84.9687 664.251 84.2017V81.8864C664.061 82.0095 663.801 82.1231 663.469 82.2273C663.147 82.322 662.783 82.4119 662.376 82.4972C661.969 82.5729 661.561 82.6439 661.154 82.7102C660.747 82.767 660.378 82.8191 660.046 82.8665C659.336 82.9706 658.716 83.1364 658.185 83.3636C657.655 83.5909 657.243 83.8987 656.95 84.2869C656.656 84.6657 656.509 85.1392 656.509 85.7074C656.509 86.5312 656.808 87.161 657.404 87.5966C658.01 88.0227 658.777 88.2358 659.705 88.2358ZM682.184 62.9091L681.63 83.2784H676.431L675.863 62.9091H682.184ZM679.031 92.3693C678.093 92.3693 677.288 92.0379 676.616 91.375C675.943 90.7027 675.612 89.8977 675.621 88.9602C675.612 88.0322 675.943 87.2367 676.616 86.5739C677.288 85.911 678.093 85.5795 679.031 85.5795C679.93 85.5795 680.721 85.911 681.403 86.5739C682.085 87.2367 682.43 88.0322 682.44 88.9602C682.43 89.5852 682.264 90.1581 681.942 90.679C681.63 91.1903 681.218 91.6023 680.707 91.9148C680.195 92.2178 679.637 92.3693 679.031 92.3693Z" fill="white"/>
<path id="Selamat Datang Di Sistem Informasi Pajak Bumi Bangunan" d="M49.9644 119.667C49.8772 118.894 49.5179 118.295 48.8862 117.87C48.2546 117.44 47.4596 117.225 46.5013 117.225C45.8152 117.225 45.2217 117.334 44.7207 117.551C44.2198 117.764 43.8305 118.058 43.5528 118.434C43.2805 118.804 43.1444 119.226 43.1444 119.7C43.1444 120.097 43.237 120.44 43.4221 120.729C43.6127 121.017 43.8604 121.26 44.1654 121.456C44.4757 121.646 44.8079 121.807 45.1618 121.938C45.5157 122.063 45.856 122.166 46.1828 122.248L47.8163 122.673C48.3499 122.803 48.8971 122.98 49.458 123.203C50.0188 123.427 50.5388 123.721 51.018 124.086C51.4971 124.45 51.8837 124.902 52.1778 125.441C52.4773 125.98 52.627 126.626 52.627 127.377C52.627 128.325 52.382 129.166 51.8919 129.901C51.4073 130.636 50.7022 131.216 49.7765 131.641C48.8563 132.065 47.7428 132.278 46.4359 132.278C45.1836 132.278 44.1 132.079 43.1852 131.681C42.2705 131.284 41.5544 130.72 41.0372 129.991C40.5199 129.256 40.234 128.384 40.1796 127.377H42.7115C42.7605 127.982 42.9565 128.485 43.2996 128.888C43.6481 129.286 44.0918 129.582 44.6309 129.778C45.1754 129.969 45.7716 130.064 46.4196 130.064C47.1329 130.064 47.7673 129.953 48.3227 129.729C48.8835 129.501 49.3246 129.185 49.6458 128.782C49.9671 128.374 50.1277 127.897 50.1277 127.353C50.1277 126.857 49.9861 126.451 49.703 126.136C49.4253 125.82 49.0469 125.558 48.5677 125.352C48.094 125.145 47.5576 124.962 46.9587 124.804L44.9821 124.265C43.6426 123.9 42.5808 123.364 41.7967 122.656C41.0181 121.948 40.6288 121.012 40.6288 119.847C40.6288 118.883 40.8901 118.042 41.4129 117.323C41.9356 116.604 42.6435 116.046 43.5364 115.648C44.4294 115.246 45.4368 115.044 46.5585 115.044C47.691 115.044 48.6902 115.243 49.556 115.64C50.4272 116.038 51.1133 116.585 51.6142 117.282C52.1152 117.973 52.3765 118.768 52.3983 119.667H49.9644ZM60.8538 132.253C59.6178 132.253 58.5533 131.989 57.6603 131.461C56.7727 130.927 56.0867 130.179 55.6021 129.215C55.1229 128.246 54.8833 127.11 54.8833 125.809C54.8833 124.524 55.1229 123.391 55.6021 122.411C56.0867 121.431 56.7619 120.666 57.6276 120.116C58.4988 119.566 59.5171 119.291 60.6823 119.291C61.3902 119.291 62.0762 119.408 62.7405 119.642C63.4048 119.877 64.0011 120.244 64.5293 120.745C65.0574 121.246 65.474 121.897 65.7789 122.697C66.0838 123.492 66.2363 124.459 66.2363 125.597V126.462H56.2636V124.633H63.8432C63.8432 123.99 63.7125 123.421 63.4511 122.926C63.1898 122.425 62.8222 122.03 62.3485 121.741C61.8802 121.453 61.3303 121.309 60.6986 121.309C60.0126 121.309 59.4136 121.477 58.9018 121.815C58.3954 122.147 58.0033 122.583 57.7256 123.122C57.4534 123.655 57.3172 124.235 57.3172 124.862V126.291C57.3172 127.129 57.4643 127.843 57.7583 128.431C58.0578 129.019 58.4743 129.468 59.0079 129.778C59.5416 130.083 60.165 130.236 60.8783 130.236C61.3412 130.236 61.7632 130.17 62.1443 130.04C62.5255 129.904 62.8549 129.702 63.1326 129.435C63.4103 129.169 63.6226 128.839 63.7697 128.447L66.0811 128.864C65.896 129.544 65.5638 130.141 65.0847 130.652C64.6109 131.159 64.0147 131.554 63.2959 131.837C62.5826 132.114 61.7686 132.253 60.8538 132.253ZM71.388 115.273V132H68.9459V115.273H71.388ZM78.3244 132.278C77.5294 132.278 76.8106 132.131 76.1681 131.837C75.5256 131.537 75.0165 131.104 74.6408 130.538C74.2705 129.972 74.0854 129.277 74.0854 128.455C74.0854 127.747 74.2215 127.165 74.4937 126.707C74.766 126.25 75.1335 125.888 75.5964 125.621C76.0592 125.354 76.5765 125.153 77.1482 125.017C77.7199 124.881 78.3026 124.777 78.8961 124.706C79.6475 124.619 80.2574 124.548 80.7256 124.494C81.1939 124.434 81.5342 124.339 81.7466 124.208C81.9589 124.077 82.0651 123.865 82.0651 123.571V123.514C82.0651 122.801 81.8637 122.248 81.4607 121.856C81.0632 121.464 80.4697 121.268 79.6802 121.268C78.858 121.268 78.21 121.45 77.7363 121.815C77.268 122.174 76.944 122.575 76.7643 123.016L74.4692 122.493C74.7415 121.731 75.139 121.115 75.6617 120.647C76.1899 120.173 76.797 119.83 77.4831 119.618C78.1692 119.4 78.8906 119.291 79.6475 119.291C80.1485 119.291 80.6793 119.351 81.2402 119.471C81.8065 119.585 82.3347 119.798 82.8247 120.108C83.3202 120.418 83.7259 120.862 84.0417 121.439C84.3575 122.011 84.5154 122.754 84.5154 123.669V132H82.1305V130.285H82.0324C81.8745 130.601 81.6377 130.911 81.3219 131.216C81.0061 131.521 80.6004 131.774 80.1049 131.975C79.6094 132.177 79.0159 132.278 78.3244 132.278ZM78.8552 130.317C79.5304 130.317 80.1076 130.184 80.5868 129.917C81.0714 129.65 81.4389 129.302 81.6894 128.872C81.9453 128.436 82.0733 127.971 82.0733 127.475V125.858C81.9862 125.945 81.8174 126.027 81.5669 126.103C81.3219 126.174 81.0414 126.236 80.7256 126.291C80.4098 126.34 80.1022 126.386 79.8027 126.43C79.5032 126.468 79.2527 126.5 79.0513 126.528C78.5775 126.588 78.1447 126.688 77.7526 126.83C77.366 126.971 77.0556 127.176 76.8215 127.442C76.5928 127.704 76.4785 128.052 76.4785 128.488C76.4785 129.092 76.7017 129.55 77.1482 129.86C77.5947 130.165 78.1637 130.317 78.8552 130.317ZM87.7682 132V119.455H90.1123V121.496H90.2674C90.5288 120.805 90.9562 120.266 91.5498 119.879C92.1433 119.487 92.8539 119.291 93.6815 119.291C94.52 119.291 95.2225 119.487 95.7888 119.879C96.3605 120.271 96.7825 120.81 97.0547 121.496H97.1854C97.4849 120.827 97.9613 120.293 98.6147 119.896C99.2682 119.493 100.047 119.291 100.951 119.291C102.089 119.291 103.017 119.648 103.736 120.361C104.46 121.074 104.822 122.15 104.822 123.587V132H102.38V123.816C102.38 122.967 102.149 122.351 101.686 121.97C101.223 121.589 100.67 121.398 100.028 121.398C99.2328 121.398 98.6147 121.643 98.1737 122.134C97.7326 122.618 97.5121 123.242 97.5121 124.004V132H95.0782V123.661C95.0782 122.98 94.8658 122.433 94.4411 122.019C94.0164 121.605 93.4637 121.398 92.7831 121.398C92.3202 121.398 91.8928 121.521 91.5008 121.766C91.1142 122.006 90.8011 122.34 90.5615 122.771C90.3273 123.201 90.2103 123.699 90.2103 124.265V132H87.7682ZM111.746 132.278C110.951 132.278 110.232 132.131 109.59 131.837C108.947 131.537 108.438 131.104 108.063 130.538C107.692 129.972 107.507 129.277 107.507 128.455C107.507 127.747 107.643 127.165 107.916 126.707C108.188 126.25 108.555 125.888 109.018 125.621C109.481 125.354 109.998 125.153 110.57 125.017C111.142 124.881 111.724 124.777 112.318 124.706C113.069 124.619 113.679 124.548 114.148 124.494C114.616 124.434 114.956 124.339 115.168 124.208C115.381 124.077 115.487 123.865 115.487 123.571V123.514C115.487 122.801 115.286 122.248 114.883 121.856C114.485 121.464 113.892 121.268 113.102 121.268C112.28 121.268 111.632 121.45 111.158 121.815C110.69 122.174 110.366 122.575 110.186 123.016L107.891 122.493C108.163 121.731 108.561 121.115 109.084 120.647C109.612 120.173 110.219 119.83 110.905 119.618C111.591 119.4 112.313 119.291 113.069 119.291C113.57 119.291 114.101 119.351 114.662 119.471C115.228 119.585 115.757 119.798 116.247 120.108C116.742 120.418 117.148 120.862 117.464 121.439C117.779 122.011 117.937 122.754 117.937 123.669V132H115.552V130.285H115.454C115.296 130.601 115.06 130.911 114.744 131.216C114.428 131.521 114.022 131.774 113.527 131.975C113.031 132.177 112.438 132.278 111.746 132.278ZM112.277 130.317C112.952 130.317 113.529 130.184 114.009 129.917C114.493 129.65 114.861 129.302 115.111 128.872C115.367 128.436 115.495 127.971 115.495 127.475V125.858C115.408 125.945 115.239 126.027 114.989 126.103C114.744 126.174 114.463 126.236 114.148 126.291C113.832 126.34 113.524 126.386 113.225 126.43C112.925 126.468 112.675 126.5 112.473 126.528C111.999 126.588 111.567 126.688 111.174 126.83C110.788 126.971 110.478 127.176 110.243 127.442C110.015 127.704 109.9 128.052 109.9 128.488C109.9 129.092 110.124 129.55 110.57 129.86C111.017 130.165 111.586 130.317 112.277 130.317ZM127.046 119.455V121.415H120.194V119.455H127.046ZM122.031 116.449H124.473V128.316C124.473 128.79 124.544 129.147 124.686 129.386C124.827 129.621 125.01 129.781 125.233 129.868C125.462 129.95 125.709 129.991 125.976 129.991C126.172 129.991 126.344 129.977 126.491 129.95C126.638 129.923 126.752 129.901 126.834 129.885L127.275 131.902C127.133 131.956 126.932 132.011 126.67 132.065C126.409 132.125 126.082 132.158 125.69 132.163C125.048 132.174 124.449 132.06 123.894 131.82C123.338 131.581 122.889 131.21 122.546 130.71C122.203 130.209 122.031 129.58 122.031 128.823V116.449ZM141.446 132H136.031V115.273H141.617C143.256 115.273 144.664 115.608 145.84 116.277C147.016 116.942 147.917 117.897 148.543 119.144C149.175 120.386 149.491 121.875 149.491 123.612C149.491 125.354 149.172 126.852 148.535 128.104C147.904 129.356 146.989 130.32 145.791 130.995C144.593 131.665 143.145 132 141.446 132ZM138.554 129.795H141.307C142.581 129.795 143.64 129.555 144.484 129.076C145.328 128.591 145.96 127.892 146.379 126.977C146.798 126.057 147.008 124.935 147.008 123.612C147.008 122.3 146.798 121.186 146.379 120.271C145.965 119.357 145.347 118.662 144.525 118.189C143.703 117.715 142.682 117.478 141.462 117.478H138.554V129.795ZM156.084 132.278C155.289 132.278 154.57 132.131 153.928 131.837C153.285 131.537 152.776 131.104 152.401 130.538C152.03 129.972 151.845 129.277 151.845 128.455C151.845 127.747 151.981 127.165 152.254 126.707C152.526 126.25 152.893 125.888 153.356 125.621C153.819 125.354 154.336 125.153 154.908 125.017C155.48 124.881 156.062 124.777 156.656 124.706C157.407 124.619 158.017 124.548 158.485 124.494C158.954 124.434 159.294 124.339 159.506 124.208C159.719 124.077 159.825 123.865 159.825 123.571V123.514C159.825 122.801 159.623 122.248 159.22 121.856C158.823 121.464 158.229 121.268 157.44 121.268C156.618 121.268 155.97 121.45 155.496 121.815C155.028 122.174 154.704 122.575 154.524 123.016L152.229 122.493C152.501 121.731 152.899 121.115 153.421 120.647C153.95 120.173 154.557 119.83 155.243 119.618C155.929 119.4 156.65 119.291 157.407 119.291C157.908 119.291 158.439 119.351 159 119.471C159.566 119.585 160.094 119.798 160.584 120.108C161.08 120.418 161.486 120.862 161.801 121.439C162.117 122.011 162.275 122.754 162.275 123.669V132H159.89V130.285H159.792C159.634 130.601 159.397 130.911 159.082 131.216C158.766 131.521 158.36 131.774 157.865 131.975C157.369 132.177 156.776 132.278 156.084 132.278ZM156.615 130.317C157.29 130.317 157.867 130.184 158.347 129.917C158.831 129.65 159.199 129.302 159.449 128.872C159.705 128.436 159.833 127.971 159.833 127.475V125.858C159.746 125.945 159.577 126.027 159.327 126.103C159.082 126.174 158.801 126.236 158.485 126.291C158.17 126.34 157.862 126.386 157.562 126.43C157.263 126.468 157.013 126.5 156.811 126.528C156.337 126.588 155.904 126.688 155.512 126.83C155.126 126.971 154.815 127.176 154.581 127.442C154.353 127.704 154.238 128.052 154.238 128.488C154.238 129.092 154.461 129.55 154.908 129.86C155.354 130.165 155.923 130.317 156.615 130.317ZM171.384 119.455V121.415H164.531V119.455H171.384ZM166.369 116.449H168.811V128.316C168.811 128.79 168.882 129.147 169.024 129.386C169.165 129.621 169.348 129.781 169.571 129.868C169.8 129.95 170.047 129.991 170.314 129.991C170.51 129.991 170.682 129.977 170.829 129.95C170.976 129.923 171.09 129.901 171.172 129.885L171.613 131.902C171.471 131.956 171.27 132.011 171.008 132.065C170.747 132.125 170.42 132.158 170.028 132.163C169.386 132.174 168.787 132.06 168.231 131.82C167.676 131.581 167.227 131.21 166.884 130.71C166.541 130.209 166.369 129.58 166.369 128.823V116.449ZM177.736 132.278C176.941 132.278 176.223 132.131 175.58 131.837C174.938 131.537 174.429 131.104 174.053 130.538C173.683 129.972 173.497 129.277 173.497 128.455C173.497 127.747 173.634 127.165 173.906 126.707C174.178 126.25 174.546 125.888 175.008 125.621C175.471 125.354 175.989 125.153 176.56 125.017C177.132 124.881 177.715 124.777 178.308 124.706C179.06 124.619 179.669 124.548 180.138 124.494C180.606 124.434 180.946 124.339 181.159 124.208C181.371 124.077 181.477 123.865 181.477 123.571V123.514C181.477 122.801 181.276 122.248 180.873 121.856C180.475 121.464 179.882 121.268 179.092 121.268C178.27 121.268 177.622 121.45 177.148 121.815C176.68 122.174 176.356 122.575 176.176 123.016L173.881 122.493C174.154 121.731 174.551 121.115 175.074 120.647C175.602 120.173 176.209 119.83 176.895 119.618C177.581 119.4 178.303 119.291 179.06 119.291C179.561 119.291 180.091 119.351 180.652 119.471C181.219 119.585 181.747 119.798 182.237 120.108C182.732 120.418 183.138 120.862 183.454 121.439C183.77 122.011 183.928 122.754 183.928 123.669V132H181.543V130.285H181.445C181.287 130.601 181.05 130.911 180.734 131.216C180.418 131.521 180.013 131.774 179.517 131.975C179.021 132.177 178.428 132.278 177.736 132.278ZM178.267 130.317C178.943 130.317 179.52 130.184 179.999 129.917C180.484 129.65 180.851 129.302 181.102 128.872C181.357 128.436 181.485 127.971 181.485 127.475V125.858C181.398 125.945 181.229 126.027 180.979 126.103C180.734 126.174 180.454 126.236 180.138 126.291C179.822 126.34 179.514 126.386 179.215 126.43C178.915 126.468 178.665 126.5 178.463 126.528C177.99 126.588 177.557 126.688 177.165 126.83C176.778 126.971 176.468 127.176 176.234 127.442C176.005 127.704 175.891 128.052 175.891 128.488C175.891 129.092 176.114 129.55 176.56 129.86C177.007 130.165 177.576 130.317 178.267 130.317ZM189.622 124.551V132H187.18V119.455H189.524V121.496H189.68C189.968 120.832 190.42 120.299 191.035 119.896C191.656 119.493 192.437 119.291 193.379 119.291C194.234 119.291 194.983 119.471 195.626 119.83C196.268 120.184 196.766 120.712 197.12 121.415C197.474 122.117 197.651 122.986 197.651 124.02V132H195.209V124.314C195.209 123.405 194.972 122.694 194.498 122.183C194.025 121.665 193.374 121.407 192.546 121.407C191.98 121.407 191.476 121.529 191.035 121.774C190.6 122.019 190.254 122.379 189.998 122.852C189.748 123.321 189.622 123.887 189.622 124.551ZM206.186 136.966C205.19 136.966 204.332 136.835 203.614 136.574C202.9 136.313 202.318 135.967 201.866 135.537C201.414 135.106 201.076 134.635 200.853 134.124L202.952 133.258C203.099 133.497 203.295 133.751 203.54 134.017C203.79 134.29 204.128 134.521 204.553 134.712C204.983 134.902 205.536 134.998 206.211 134.998C207.136 134.998 207.902 134.772 208.506 134.32C209.11 133.873 209.413 133.16 209.413 132.18V129.713H209.257C209.11 129.98 208.898 130.277 208.62 130.603C208.348 130.93 207.972 131.213 207.493 131.453C207.014 131.692 206.39 131.812 205.623 131.812C204.632 131.812 203.739 131.581 202.944 131.118C202.154 130.65 201.528 129.961 201.065 129.051C200.608 128.137 200.379 127.012 200.379 125.678C200.379 124.344 200.605 123.201 201.057 122.248C201.514 121.295 202.141 120.565 202.936 120.059C203.731 119.547 204.632 119.291 205.639 119.291C206.418 119.291 207.047 119.422 207.526 119.683C208.005 119.939 208.378 120.239 208.645 120.582C208.917 120.925 209.127 121.227 209.274 121.488H209.453V119.455H211.846V132.278C211.846 133.356 211.596 134.241 211.095 134.932C210.594 135.624 209.916 136.136 209.061 136.468C208.212 136.8 207.254 136.966 206.186 136.966ZM206.162 129.787C206.864 129.787 207.458 129.623 207.942 129.297C208.432 128.964 208.803 128.491 209.053 127.875C209.309 127.255 209.437 126.511 209.437 125.646C209.437 124.802 209.312 124.058 209.061 123.416C208.811 122.773 208.443 122.272 207.959 121.913C207.474 121.548 206.875 121.366 206.162 121.366C205.427 121.366 204.814 121.556 204.324 121.938C203.834 122.313 203.464 122.825 203.213 123.473C202.968 124.121 202.846 124.845 202.846 125.646C202.846 126.468 202.971 127.189 203.221 127.81C203.472 128.431 203.842 128.915 204.332 129.264C204.828 129.612 205.438 129.787 206.162 129.787ZM226.82 132H221.405V115.273H226.991C228.63 115.273 230.038 115.608 231.214 116.277C232.39 116.942 233.291 117.897 233.917 119.144C234.549 120.386 234.865 121.875 234.865 123.612C234.865 125.354 234.546 126.852 233.909 128.104C233.278 129.356 232.363 130.32 231.165 130.995C229.967 131.665 228.519 132 226.82 132ZM223.928 129.795H226.681C227.955 129.795 229.014 129.555 229.858 129.076C230.702 128.591 231.334 127.892 231.753 126.977C232.172 126.057 232.382 124.935 232.382 123.612C232.382 122.3 232.172 121.186 231.753 120.271C231.339 119.357 230.721 118.662 229.899 118.189C229.077 117.715 228.056 117.478 226.836 117.478H223.928V129.795ZM237.807 132V119.455H240.249V132H237.807ZM239.041 117.519C238.616 117.519 238.251 117.377 237.946 117.094C237.647 116.806 237.497 116.462 237.497 116.065C237.497 115.662 237.647 115.319 237.946 115.036C238.251 114.747 238.616 114.603 239.041 114.603C239.465 114.603 239.827 114.747 240.127 115.036C240.432 115.319 240.584 115.662 240.584 116.065C240.584 116.462 240.432 116.806 240.127 117.094C239.827 117.377 239.465 117.519 239.041 117.519ZM258.941 119.667C258.854 118.894 258.494 118.295 257.863 117.87C257.231 117.44 256.436 117.225 255.478 117.225C254.792 117.225 254.198 117.334 253.697 117.551C253.196 117.764 252.807 118.058 252.529 118.434C252.257 118.804 252.121 119.226 252.121 119.7C252.121 120.097 252.214 120.44 252.399 120.729C252.589 121.017 252.837 121.26 253.142 121.456C253.452 121.646 253.784 121.807 254.138 121.938C254.492 122.063 254.833 122.166 255.159 122.248L256.793 122.673C257.326 122.803 257.874 122.98 258.435 123.203C258.995 123.427 259.515 123.721 259.995 124.086C260.474 124.45 260.86 124.902 261.154 125.441C261.454 125.98 261.604 126.626 261.604 127.377C261.604 128.325 261.359 129.166 260.868 129.901C260.384 130.636 259.679 131.216 258.753 131.641C257.833 132.065 256.719 132.278 255.413 132.278C254.16 132.278 253.077 132.079 252.162 131.681C251.247 131.284 250.531 130.72 250.014 129.991C249.496 129.256 249.211 128.384 249.156 127.377H251.688C251.737 127.982 251.933 128.485 252.276 128.888C252.625 129.286 253.068 129.582 253.607 129.778C254.152 129.969 254.748 130.064 255.396 130.064C256.109 130.064 256.744 129.953 257.299 129.729C257.86 129.501 258.301 129.185 258.622 128.782C258.944 128.374 259.104 127.897 259.104 127.353C259.104 126.857 258.963 126.451 258.68 126.136C258.402 125.82 258.023 125.558 257.544 125.352C257.071 125.145 256.534 124.962 255.935 124.804L253.959 124.265C252.619 123.9 251.557 123.364 250.773 122.656C249.995 121.948 249.605 121.012 249.605 119.847C249.605 118.883 249.867 118.042 250.389 117.323C250.912 116.604 251.62 116.046 252.513 115.648C253.406 115.246 254.413 115.044 255.535 115.044C256.668 115.044 257.667 115.243 258.533 115.64C259.404 116.038 260.09 116.585 260.591 117.282C261.092 117.973 261.353 118.768 261.375 119.667H258.941ZM264.423 132V119.455H266.866V132H264.423ZM265.657 117.519C265.232 117.519 264.867 117.377 264.562 117.094C264.263 116.806 264.113 116.462 264.113 116.065C264.113 115.662 264.263 115.319 264.562 115.036C264.867 114.747 265.232 114.603 265.657 114.603C266.081 114.603 266.444 114.747 266.743 115.036C267.048 115.319 267.2 115.662 267.2 116.065C267.2 116.462 267.048 116.806 266.743 117.094C266.444 117.377 266.081 117.519 265.657 117.519ZM279.552 122.517L277.338 122.909C277.246 122.626 277.099 122.357 276.897 122.101C276.701 121.845 276.435 121.635 276.097 121.472C275.759 121.309 275.337 121.227 274.831 121.227C274.139 121.227 273.562 121.382 273.099 121.692C272.637 121.997 272.405 122.392 272.405 122.877C272.405 123.296 272.56 123.634 272.871 123.89C273.181 124.145 273.682 124.355 274.374 124.518L276.367 124.976C277.521 125.243 278.381 125.654 278.947 126.209C279.514 126.765 279.797 127.486 279.797 128.374C279.797 129.125 279.579 129.795 279.144 130.383C278.713 130.965 278.112 131.423 277.338 131.755C276.571 132.087 275.68 132.253 274.668 132.253C273.263 132.253 272.117 131.954 271.229 131.355C270.342 130.75 269.797 129.893 269.596 128.782L271.956 128.423C272.103 129.038 272.405 129.503 272.863 129.819C273.32 130.13 273.916 130.285 274.651 130.285C275.452 130.285 276.092 130.119 276.571 129.787C277.05 129.449 277.289 129.038 277.289 128.553C277.289 128.161 277.142 127.832 276.848 127.565C276.56 127.298 276.116 127.097 275.517 126.961L273.394 126.495C272.223 126.228 271.357 125.804 270.796 125.221C270.241 124.638 269.963 123.9 269.963 123.007C269.963 122.267 270.17 121.619 270.584 121.064C270.998 120.508 271.569 120.075 272.299 119.765C273.029 119.449 273.865 119.291 274.807 119.291C276.162 119.291 277.23 119.585 278.008 120.173C278.787 120.756 279.301 121.537 279.552 122.517ZM288.338 119.455V121.415H281.486V119.455H288.338ZM283.323 116.449H285.765V128.316C285.765 128.79 285.836 129.147 285.978 129.386C286.119 129.621 286.302 129.781 286.525 129.868C286.754 129.95 287.001 129.991 287.268 129.991C287.464 129.991 287.636 129.977 287.783 129.95C287.93 129.923 288.044 129.901 288.126 129.885L288.567 131.902C288.425 131.956 288.224 132.011 287.962 132.065C287.701 132.125 287.374 132.158 286.982 132.163C286.34 132.174 285.741 132.06 285.186 131.82C284.63 131.581 284.181 131.21 283.838 130.71C283.495 130.209 283.323 129.58 283.323 128.823V116.449ZM296.312 132.253C295.076 132.253 294.011 131.989 293.118 131.461C292.231 130.927 291.545 130.179 291.06 129.215C290.581 128.246 290.341 127.11 290.341 125.809C290.341 124.524 290.581 123.391 291.06 122.411C291.545 121.431 292.22 120.666 293.086 120.116C293.957 119.566 294.975 119.291 296.14 119.291C296.848 119.291 297.534 119.408 298.199 119.642C298.863 119.877 299.459 120.244 299.987 120.745C300.515 121.246 300.932 121.897 301.237 122.697C301.542 123.492 301.694 124.459 301.694 125.597V126.462H291.722V124.633H299.301C299.301 123.99 299.17 123.421 298.909 122.926C298.648 122.425 298.28 122.03 297.807 121.741C297.338 121.453 296.788 121.309 296.157 121.309C295.471 121.309 294.872 121.477 294.36 121.815C293.853 122.147 293.461 122.583 293.184 123.122C292.911 123.655 292.775 124.235 292.775 124.862V126.291C292.775 127.129 292.922 127.843 293.216 128.431C293.516 129.019 293.932 129.468 294.466 129.778C295 130.083 295.623 130.236 296.336 130.236C296.799 130.236 297.221 130.17 297.602 130.04C297.983 129.904 298.313 129.702 298.591 129.435C298.868 129.169 299.081 128.839 299.228 128.447L301.539 128.864C301.354 129.544 301.022 130.141 300.543 130.652C300.069 131.159 299.473 131.554 298.754 131.837C298.041 132.114 297.227 132.253 296.312 132.253ZM304.404 132V119.455H306.748V121.496H306.903C307.165 120.805 307.592 120.266 308.186 119.879C308.779 119.487 309.49 119.291 310.317 119.291C311.156 119.291 311.858 119.487 312.424 119.879C312.996 120.271 313.418 120.81 313.69 121.496H313.821C314.121 120.827 314.597 120.293 315.25 119.896C315.904 119.493 316.683 119.291 317.586 119.291C318.724 119.291 319.653 119.648 320.372 120.361C321.096 121.074 321.458 122.15 321.458 123.587V132H319.016V123.816C319.016 122.967 318.784 122.351 318.322 121.97C317.859 121.589 317.306 121.398 316.663 121.398C315.869 121.398 315.25 121.643 314.809 122.134C314.368 122.618 314.148 123.242 314.148 124.004V132H311.714V123.661C311.714 122.98 311.502 122.433 311.077 122.019C310.652 121.605 310.099 121.398 309.419 121.398C308.956 121.398 308.529 121.521 308.136 121.766C307.75 122.006 307.437 122.34 307.197 122.771C306.963 123.201 306.846 123.699 306.846 124.265V132H304.404ZM333.538 115.273V132H331.014V115.273H333.538ZM339.459 124.551V132H337.017V119.455H339.361V121.496H339.516C339.805 120.832 340.257 120.299 340.872 119.896C341.493 119.493 342.274 119.291 343.216 119.291C344.071 119.291 344.82 119.471 345.462 119.83C346.105 120.184 346.603 120.712 346.957 121.415C347.311 122.117 347.488 122.986 347.488 124.02V132H345.046V124.314C345.046 123.405 344.809 122.694 344.335 122.183C343.862 121.665 343.211 121.407 342.383 121.407C341.817 121.407 341.313 121.529 340.872 121.774C340.437 122.019 340.091 122.379 339.835 122.852C339.585 123.321 339.459 123.887 339.459 124.551ZM356.734 119.455V121.415H349.644V119.455H356.734ZM351.588 132V118.001C351.588 117.217 351.76 116.566 352.103 116.049C352.446 115.526 352.9 115.137 353.467 114.881C354.033 114.619 354.648 114.489 355.313 114.489C355.803 114.489 356.222 114.529 356.57 114.611C356.919 114.687 357.178 114.758 357.346 114.824L356.775 116.8C356.66 116.767 356.513 116.729 356.334 116.686C356.154 116.637 355.936 116.612 355.68 116.612C355.087 116.612 354.662 116.759 354.406 117.053C354.156 117.347 354.03 117.772 354.03 118.327V132H351.588ZM364.044 132.253C362.868 132.253 361.841 131.984 360.965 131.445C360.088 130.906 359.407 130.151 358.923 129.182C358.438 128.213 358.196 127.08 358.196 125.784C358.196 124.483 358.438 123.345 358.923 122.37C359.407 121.396 360.088 120.639 360.965 120.1C361.841 119.561 362.868 119.291 364.044 119.291C365.22 119.291 366.246 119.561 367.123 120.1C368 120.639 368.68 121.396 369.165 122.37C369.65 123.345 369.892 124.483 369.892 125.784C369.892 127.08 369.65 128.213 369.165 129.182C368.68 130.151 368 130.906 367.123 131.445C366.246 131.984 365.22 132.253 364.044 132.253ZM364.052 130.203C364.814 130.203 365.446 130.002 365.947 129.599C366.448 129.196 366.818 128.659 367.058 127.99C367.303 127.32 367.425 126.582 367.425 125.776C367.425 124.976 367.303 124.241 367.058 123.571C366.818 122.896 366.448 122.354 365.947 121.946C365.446 121.537 364.814 121.333 364.052 121.333C363.284 121.333 362.647 121.537 362.141 121.946C361.64 122.354 361.267 122.896 361.022 123.571C360.782 124.241 360.662 124.976 360.662 125.776C360.662 126.582 360.782 127.32 361.022 127.99C361.267 128.659 361.64 129.196 362.141 129.599C362.647 130.002 363.284 130.203 364.052 130.203ZM372.618 132V119.455H374.978V121.447H375.109C375.338 120.772 375.741 120.241 376.318 119.855C376.9 119.463 377.559 119.267 378.294 119.267C378.447 119.267 378.626 119.272 378.833 119.283C379.046 119.294 379.212 119.308 379.332 119.324V121.66C379.234 121.633 379.059 121.603 378.809 121.57C378.558 121.532 378.308 121.513 378.057 121.513C377.48 121.513 376.966 121.635 376.514 121.88C376.067 122.12 375.713 122.455 375.452 122.885C375.191 123.31 375.06 123.794 375.06 124.339V132H372.618ZM381.445 132V119.455H383.789V121.496H383.944C384.206 120.805 384.633 120.266 385.227 119.879C385.82 119.487 386.531 119.291 387.358 119.291C388.197 119.291 388.899 119.487 389.466 119.879C390.037 120.271 390.459 120.81 390.731 121.496H390.862C391.162 120.827 391.638 120.293 392.292 119.896C392.945 119.493 393.724 119.291 394.627 119.291C395.765 119.291 396.694 119.648 397.413 120.361C398.137 121.074 398.499 122.15 398.499 123.587V132H396.057V123.816C396.057 122.967 395.825 122.351 395.363 121.97C394.9 121.589 394.347 121.398 393.705 121.398C392.91 121.398 392.292 121.643 391.85 122.134C391.409 122.618 391.189 123.242 391.189 124.004V132H388.755V123.661C388.755 122.98 388.543 122.433 388.118 122.019C387.693 121.605 387.14 121.398 386.46 121.398C385.997 121.398 385.57 121.521 385.178 121.766C384.791 122.006 384.478 122.34 384.238 122.771C384.004 123.201 383.887 123.699 383.887 124.265V132H381.445ZM405.423 132.278C404.628 132.278 403.909 132.131 403.267 131.837C402.624 131.537 402.115 131.104 401.739 130.538C401.369 129.972 401.184 129.277 401.184 128.455C401.184 127.747 401.32 127.165 401.592 126.707C401.865 126.25 402.232 125.888 402.695 125.621C403.158 125.354 403.675 125.153 404.247 125.017C404.819 124.881 405.401 124.777 405.995 124.706C406.746 124.619 407.356 124.548 407.824 124.494C408.293 124.434 408.633 124.339 408.845 124.208C409.058 124.077 409.164 123.865 409.164 123.571V123.514C409.164 122.801 408.962 122.248 408.559 121.856C408.162 121.464 407.568 121.268 406.779 121.268C405.957 121.268 405.309 121.45 404.835 121.815C404.367 122.174 404.043 122.575 403.863 123.016L401.568 122.493C401.84 121.731 402.238 121.115 402.76 120.647C403.289 120.173 403.896 119.83 404.582 119.618C405.268 119.4 405.989 119.291 406.746 119.291C407.247 119.291 407.778 119.351 408.339 119.471C408.905 119.585 409.433 119.798 409.923 120.108C410.419 120.418 410.824 120.862 411.14 121.439C411.456 122.011 411.614 122.754 411.614 123.669V132H409.229V130.285H409.131C408.973 130.601 408.736 130.911 408.42 131.216C408.105 131.521 407.699 131.774 407.204 131.975C406.708 132.177 406.115 132.278 405.423 132.278ZM405.954 130.317C406.629 130.317 407.206 130.184 407.685 129.917C408.17 129.65 408.538 129.302 408.788 128.872C409.044 128.436 409.172 127.971 409.172 127.475V125.858C409.085 125.945 408.916 126.027 408.666 126.103C408.42 126.174 408.14 126.236 407.824 126.291C407.508 126.34 407.201 126.386 406.901 126.43C406.602 126.468 406.351 126.5 406.15 126.528C405.676 126.588 405.243 126.688 404.851 126.83C404.465 126.971 404.154 127.176 403.92 127.442C403.691 127.704 403.577 128.052 403.577 128.488C403.577 129.092 403.8 129.55 404.247 129.86C404.693 130.165 405.262 130.317 405.954 130.317ZM424.268 122.517L422.054 122.909C421.962 122.626 421.815 122.357 421.613 122.101C421.417 121.845 421.15 121.635 420.813 121.472C420.475 121.309 420.053 121.227 419.547 121.227C418.855 121.227 418.278 121.382 417.815 121.692C417.352 121.997 417.121 122.392 417.121 122.877C417.121 123.296 417.276 123.634 417.587 123.89C417.897 124.145 418.398 124.355 419.089 124.518L421.082 124.976C422.237 125.243 423.097 125.654 423.663 126.209C424.23 126.765 424.513 127.486 424.513 128.374C424.513 129.125 424.295 129.795 423.859 130.383C423.429 130.965 422.827 131.423 422.054 131.755C421.287 132.087 420.396 132.253 419.383 132.253C417.979 132.253 416.832 131.954 415.945 131.355C415.057 130.75 414.513 129.893 414.311 128.782L416.672 128.423C416.819 129.038 417.121 129.503 417.578 129.819C418.036 130.13 418.632 130.285 419.367 130.285C420.168 130.285 420.807 130.119 421.287 129.787C421.766 129.449 422.005 129.038 422.005 128.553C422.005 128.161 421.858 127.832 421.564 127.565C421.276 127.298 420.832 127.097 420.233 126.961L418.109 126.495C416.939 126.228 416.073 125.804 415.512 125.221C414.957 124.638 414.679 123.9 414.679 123.007C414.679 122.267 414.886 121.619 415.3 121.064C415.713 120.508 416.285 120.075 417.015 119.765C417.745 119.449 418.58 119.291 419.522 119.291C420.878 119.291 421.945 119.585 422.724 120.173C423.503 120.756 424.017 121.537 424.268 122.517ZM427.198 132V119.455H429.64V132H427.198ZM428.431 117.519C428.006 117.519 427.642 117.377 427.337 117.094C427.037 116.806 426.887 116.462 426.887 116.065C426.887 115.662 427.037 115.319 427.337 115.036C427.642 114.747 428.006 114.603 428.431 114.603C428.856 114.603 429.218 114.747 429.517 115.036C429.822 115.319 429.975 115.662 429.975 116.065C429.975 116.462 429.822 116.806 429.517 117.094C429.218 117.377 428.856 117.519 428.431 117.519ZM439.208 132V115.273H445.171C446.472 115.273 447.55 115.51 448.405 115.983C449.26 116.457 449.9 117.105 450.324 117.927C450.749 118.744 450.962 119.664 450.962 120.688C450.962 121.717 450.746 122.643 450.316 123.465C449.892 124.282 449.249 124.93 448.389 125.409C447.534 125.882 446.458 126.119 445.163 126.119H441.062V123.979H444.934C445.756 123.979 446.423 123.838 446.935 123.555C447.447 123.266 447.822 122.874 448.062 122.379C448.302 121.883 448.421 121.319 448.421 120.688C448.421 120.056 448.302 119.495 448.062 119.005C447.822 118.515 447.444 118.131 446.927 117.854C446.415 117.576 445.74 117.437 444.901 117.437H441.732V132H439.208ZM457.263 132.278C456.468 132.278 455.749 132.131 455.107 131.837C454.464 131.537 453.955 131.104 453.579 130.538C453.209 129.972 453.024 129.277 453.024 128.455C453.024 127.747 453.16 127.165 453.432 126.707C453.704 126.25 454.072 125.888 454.535 125.621C454.998 125.354 455.515 125.153 456.087 125.017C456.658 124.881 457.241 124.777 457.835 124.706C458.586 124.619 459.196 124.548 459.664 124.494C460.132 124.434 460.473 124.339 460.685 124.208C460.897 124.077 461.004 123.865 461.004 123.571V123.514C461.004 122.801 460.802 122.248 460.399 121.856C460.002 121.464 459.408 121.268 458.619 121.268C457.796 121.268 457.148 121.45 456.675 121.815C456.206 122.174 455.883 122.575 455.703 123.016L453.408 122.493C453.68 121.731 454.077 121.115 454.6 120.647C455.128 120.173 455.735 119.83 456.422 119.618C457.108 119.4 457.829 119.291 458.586 119.291C459.087 119.291 459.618 119.351 460.179 119.471C460.745 119.585 461.273 119.798 461.763 120.108C462.259 120.418 462.664 120.862 462.98 121.439C463.296 122.011 463.454 122.754 463.454 123.669V132H461.069V130.285H460.971C460.813 130.601 460.576 130.911 460.26 131.216C459.945 131.521 459.539 131.774 459.043 131.975C458.548 132.177 457.954 132.278 457.263 132.278ZM457.794 130.317C458.469 130.317 459.046 130.184 459.525 129.917C460.01 129.65 460.377 129.302 460.628 128.872C460.884 128.436 461.012 127.971 461.012 127.475V125.858C460.925 125.945 460.756 126.027 460.505 126.103C460.26 126.174 459.98 126.236 459.664 126.291C459.348 126.34 459.041 126.386 458.741 126.43C458.442 126.468 458.191 126.5 457.99 126.528C457.516 126.588 457.083 126.688 456.691 126.83C456.304 126.971 455.994 127.176 455.76 127.442C455.531 127.704 455.417 128.052 455.417 128.488C455.417 129.092 455.64 129.55 456.087 129.86C456.533 130.165 457.102 130.317 457.794 130.317ZM466.707 119.455H469.149V132.817C469.149 133.655 468.996 134.363 468.691 134.94C468.392 135.518 467.945 135.956 467.352 136.255C466.764 136.555 466.037 136.705 465.171 136.705C465.084 136.705 465.002 136.705 464.926 136.705C464.844 136.705 464.76 136.702 464.673 136.696V134.597C464.749 134.597 464.817 134.597 464.877 134.597C464.932 134.597 464.994 134.597 465.065 134.597C465.642 134.597 466.059 134.442 466.315 134.132C466.576 133.827 466.707 133.383 466.707 132.8V119.455ZM467.915 117.519C467.491 117.519 467.126 117.377 466.821 117.094C466.521 116.806 466.372 116.462 466.372 116.065C466.372 115.662 466.521 115.319 466.821 115.036C467.126 114.747 467.491 114.603 467.915 114.603C468.34 114.603 468.702 114.747 469.002 115.036C469.307 115.319 469.459 115.662 469.459 116.065C469.459 116.462 469.307 116.806 469.002 117.094C468.702 117.377 468.34 117.519 467.915 117.519ZM476.085 132.278C475.29 132.278 474.571 132.131 473.929 131.837C473.286 131.537 472.777 131.104 472.402 130.538C472.031 129.972 471.846 129.277 471.846 128.455C471.846 127.747 471.982 127.165 472.254 126.707C472.527 126.25 472.894 125.888 473.357 125.621C473.82 125.354 474.337 125.153 474.909 125.017C475.481 124.881 476.063 124.777 476.657 124.706C477.408 124.619 478.018 124.548 478.486 124.494C478.955 124.434 479.295 124.339 479.507 124.208C479.72 124.077 479.826 123.865 479.826 123.571V123.514C479.826 122.801 479.624 122.248 479.221 121.856C478.824 121.464 478.23 121.268 477.441 121.268C476.619 121.268 475.971 121.45 475.497 121.815C475.029 122.174 474.705 122.575 474.525 123.016L472.23 122.493C472.502 121.731 472.9 121.115 473.422 120.647C473.951 120.173 474.558 119.83 475.244 119.618C475.93 119.4 476.651 119.291 477.408 119.291C477.909 119.291 478.44 119.351 479.001 119.471C479.567 119.585 480.095 119.798 480.585 120.108C481.081 120.418 481.487 120.862 481.802 121.439C482.118 122.011 482.276 122.754 482.276 123.669V132H479.891V130.285H479.793C479.635 130.601 479.398 130.911 479.083 131.216C478.767 131.521 478.361 131.774 477.866 131.975C477.37 132.177 476.777 132.278 476.085 132.278ZM476.616 130.317C477.291 130.317 477.868 130.184 478.348 129.917C478.832 129.65 479.2 129.302 479.45 128.872C479.706 128.436 479.834 127.971 479.834 127.475V125.858C479.747 125.945 479.578 126.027 479.328 126.103C479.083 126.174 478.802 126.236 478.486 126.291C478.171 126.34 477.863 126.386 477.563 126.43C477.264 126.468 477.013 126.5 476.812 126.528C476.338 126.588 475.905 126.688 475.513 126.83C475.127 126.971 474.816 127.176 474.582 127.442C474.354 127.704 474.239 128.052 474.239 128.488C474.239 129.092 474.462 129.55 474.909 129.86C475.355 130.165 475.924 130.317 476.616 130.317ZM487.775 127.745L487.759 124.763H488.183L493.182 119.455H496.106L490.405 125.499H490.021L487.775 127.745ZM485.529 132V115.273H487.971V132H485.529ZM493.451 132L488.959 126.038L490.642 124.331L496.449 132H493.451ZM504.615 132V115.273H510.74C511.927 115.273 512.91 115.469 513.689 115.861C514.467 116.247 515.05 116.773 515.437 117.437C515.823 118.096 516.017 118.839 516.017 119.667C516.017 120.364 515.889 120.952 515.633 121.431C515.377 121.905 515.034 122.286 514.604 122.575C514.179 122.858 513.711 123.065 513.199 123.195V123.359C513.754 123.386 514.296 123.566 514.824 123.898C515.358 124.224 515.799 124.69 516.147 125.294C516.496 125.899 516.67 126.634 516.67 127.5C516.67 128.355 516.468 129.122 516.066 129.803C515.668 130.478 515.053 131.014 514.22 131.412C513.387 131.804 512.322 132 511.026 132H504.615ZM507.138 129.836H510.781C511.99 129.836 512.856 129.601 513.378 129.133C513.901 128.665 514.163 128.08 514.163 127.377C514.163 126.849 514.029 126.364 513.762 125.923C513.495 125.482 513.114 125.131 512.619 124.87C512.129 124.608 511.546 124.478 510.871 124.478H507.138V129.836ZM507.138 122.509H510.52C511.086 122.509 511.595 122.4 512.047 122.183C512.504 121.965 512.867 121.66 513.133 121.268C513.406 120.87 513.542 120.402 513.542 119.863C513.542 119.171 513.299 118.592 512.815 118.123C512.33 117.655 511.587 117.421 510.585 117.421H507.138V122.509ZM527.414 126.797V119.455H529.865V132H527.463V129.827H527.333C527.044 130.497 526.581 131.055 525.944 131.502C525.313 131.943 524.526 132.163 523.584 132.163C522.778 132.163 522.065 131.986 521.444 131.632C520.829 131.273 520.344 130.742 519.99 130.04C519.642 129.337 519.467 128.469 519.467 127.434V119.455H521.909V127.14C521.909 127.995 522.146 128.676 522.62 129.182C523.094 129.689 523.709 129.942 524.466 129.942C524.923 129.942 525.378 129.827 525.83 129.599C526.287 129.37 526.666 129.024 526.965 128.561C527.27 128.099 527.42 127.511 527.414 126.797ZM533.146 132V119.455H535.49V121.496H535.645C535.907 120.805 536.334 120.266 536.928 119.879C537.521 119.487 538.232 119.291 539.059 119.291C539.898 119.291 540.6 119.487 541.167 119.879C541.738 120.271 542.16 120.81 542.433 121.496H542.563C542.863 120.827 543.339 120.293 543.993 119.896C544.646 119.493 545.425 119.291 546.329 119.291C547.467 119.291 548.395 119.648 549.114 120.361C549.838 121.074 550.2 122.15 550.2 123.587V132H547.758V123.816C547.758 122.967 547.527 122.351 547.064 121.97C546.601 121.589 546.048 121.398 545.406 121.398C544.611 121.398 543.993 121.643 543.552 122.134C543.111 122.618 542.89 123.242 542.89 124.004V132H540.456V123.661C540.456 122.98 540.244 122.433 539.819 122.019C539.394 121.605 538.842 121.398 538.161 121.398C537.698 121.398 537.271 121.521 536.879 121.766C536.492 122.006 536.179 122.34 535.939 122.771C535.705 123.201 535.588 123.699 535.588 124.265V132H533.146ZM553.473 132V119.455H555.915V132H553.473ZM554.707 117.519C554.282 117.519 553.917 117.377 553.612 117.094C553.313 116.806 553.163 116.462 553.163 116.065C553.163 115.662 553.313 115.319 553.612 115.036C553.917 114.747 554.282 114.603 554.707 114.603C555.131 114.603 555.493 114.747 555.793 115.036C556.098 115.319 556.25 115.662 556.25 116.065C556.25 116.462 556.098 116.806 555.793 117.094C555.493 117.377 555.131 117.519 554.707 117.519ZM565.484 132V115.273H571.609C572.796 115.273 573.779 115.469 574.558 115.861C575.337 116.247 575.919 116.773 576.306 117.437C576.692 118.096 576.886 118.839 576.886 119.667C576.886 120.364 576.758 120.952 576.502 121.431C576.246 121.905 575.903 122.286 575.473 122.575C575.048 122.858 574.58 123.065 574.068 123.195V123.359C574.623 123.386 575.165 123.566 575.693 123.898C576.227 124.224 576.668 124.69 577.016 125.294C577.365 125.899 577.539 126.634 577.539 127.5C577.539 128.355 577.338 129.122 576.935 129.803C576.537 130.478 575.922 131.014 575.089 131.412C574.256 131.804 573.191 132 571.895 132H565.484ZM568.008 129.836H571.65C572.859 129.836 573.725 129.601 574.248 129.133C574.77 128.665 575.032 128.08 575.032 127.377C575.032 126.849 574.898 126.364 574.631 125.923C574.365 125.482 573.983 125.131 573.488 124.87C572.998 124.608 572.415 124.478 571.74 124.478H568.008V129.836ZM568.008 122.509H571.389C571.955 122.509 572.464 122.4 572.916 122.183C573.374 121.965 573.736 121.66 574.003 121.268C574.275 120.87 574.411 120.402 574.411 119.863C574.411 119.171 574.169 118.592 573.684 118.123C573.199 117.655 572.456 117.421 571.454 117.421H568.008V122.509ZM583.987 132.278C583.192 132.278 582.474 132.131 581.831 131.837C581.189 131.537 580.68 131.104 580.304 130.538C579.934 129.972 579.748 129.277 579.748 128.455C579.748 127.747 579.885 127.165 580.157 126.707C580.429 126.25 580.797 125.888 581.259 125.621C581.722 125.354 582.24 125.153 582.811 125.017C583.383 124.881 583.966 124.777 584.559 124.706C585.311 124.619 585.92 124.548 586.389 124.494C586.857 124.434 587.197 124.339 587.41 124.208C587.622 124.077 587.728 123.865 587.728 123.571V123.514C587.728 122.801 587.527 122.248 587.124 121.856C586.726 121.464 586.133 121.268 585.343 121.268C584.521 121.268 583.873 121.45 583.399 121.815C582.931 122.174 582.607 122.575 582.427 123.016L580.132 122.493C580.405 121.731 580.802 121.115 581.325 120.647C581.853 120.173 582.46 119.83 583.146 119.618C583.832 119.4 584.554 119.291 585.311 119.291C585.812 119.291 586.342 119.351 586.903 119.471C587.47 119.585 587.998 119.798 588.488 120.108C588.983 120.418 589.389 120.862 589.705 121.439C590.021 122.011 590.178 122.754 590.178 123.669V132H587.794V130.285H587.696C587.538 130.601 587.301 130.911 586.985 131.216C586.669 131.521 586.263 131.774 585.768 131.975C585.272 132.177 584.679 132.278 583.987 132.278ZM584.518 130.317C585.194 130.317 585.771 130.184 586.25 129.917C586.734 129.65 587.102 129.302 587.352 128.872C587.608 128.436 587.736 127.971 587.736 127.475V125.858C587.649 125.945 587.48 126.027 587.23 126.103C586.985 126.174 586.705 126.236 586.389 126.291C586.073 126.34 585.765 126.386 585.466 126.43C585.166 126.468 584.916 126.5 584.714 126.528C584.241 126.588 583.808 126.688 583.416 126.83C583.029 126.971 582.719 127.176 582.485 127.442C582.256 127.704 582.142 128.052 582.142 128.488C582.142 129.092 582.365 129.55 582.811 129.86C583.258 130.165 583.827 130.317 584.518 130.317ZM595.873 124.551V132H593.431V119.455H595.775V121.496H595.931C596.219 120.832 596.671 120.299 597.286 119.896C597.907 119.493 598.688 119.291 599.63 119.291C600.485 119.291 601.234 119.471 601.877 119.83C602.519 120.184 603.017 120.712 603.371 121.415C603.725 122.117 603.902 122.986 603.902 124.02V132H601.46V124.314C601.46 123.405 601.223 122.694 600.749 122.183C600.276 121.665 599.625 121.407 598.797 121.407C598.231 121.407 597.727 121.529 597.286 121.774C596.851 122.019 596.505 122.379 596.249 122.852C595.999 123.321 595.873 123.887 595.873 124.551ZM612.437 136.966C611.441 136.966 610.583 136.835 609.864 136.574C609.151 136.313 608.569 135.967 608.117 135.537C607.665 135.106 607.327 134.635 607.104 134.124L609.203 133.258C609.35 133.497 609.546 133.751 609.791 134.017C610.041 134.29 610.379 134.521 610.804 134.712C611.234 134.902 611.787 134.998 612.462 134.998C613.387 134.998 614.152 134.772 614.757 134.32C615.361 133.873 615.663 133.16 615.663 132.18V129.713H615.508C615.361 129.98 615.149 130.277 614.871 130.603C614.599 130.93 614.223 131.213 613.744 131.453C613.265 131.692 612.641 131.812 611.874 131.812C610.883 131.812 609.99 131.581 609.195 131.118C608.405 130.65 607.779 129.961 607.316 129.051C606.859 128.137 606.63 127.012 606.63 125.678C606.63 124.344 606.856 123.201 607.308 122.248C607.765 121.295 608.392 120.565 609.187 120.059C609.982 119.547 610.883 119.291 611.89 119.291C612.669 119.291 613.298 119.422 613.777 119.683C614.256 119.939 614.629 120.239 614.896 120.582C615.168 120.925 615.378 121.227 615.525 121.488H615.704V119.455H618.097V132.278C618.097 133.356 617.847 134.241 617.346 134.932C616.845 135.624 616.167 136.136 615.312 136.468C614.463 136.8 613.505 136.966 612.437 136.966ZM612.413 129.787C613.115 129.787 613.709 129.623 614.193 129.297C614.683 128.964 615.054 128.491 615.304 127.875C615.56 127.255 615.688 126.511 615.688 125.646C615.688 124.802 615.563 124.058 615.312 123.416C615.062 122.773 614.694 122.272 614.21 121.913C613.725 121.548 613.126 121.366 612.413 121.366C611.678 121.366 611.065 121.556 610.575 121.938C610.085 122.313 609.715 122.825 609.464 123.473C609.219 124.121 609.097 124.845 609.097 125.646C609.097 126.468 609.222 127.189 609.472 127.81C609.723 128.431 610.093 128.915 610.583 129.264C611.079 129.612 611.689 129.787 612.413 129.787ZM629.32 126.797V119.455H631.77V132H629.369V129.827H629.238C628.949 130.497 628.487 131.055 627.85 131.502C627.218 131.943 626.431 132.163 625.489 132.163C624.683 132.163 623.97 131.986 623.349 131.632C622.734 131.273 622.249 130.742 621.895 130.04C621.547 129.337 621.373 128.469 621.373 127.434V119.455H623.815V127.14C623.815 127.995 624.052 128.676 624.525 129.182C624.999 129.689 625.614 129.942 626.371 129.942C626.829 129.942 627.283 129.827 627.735 129.599C628.193 129.37 628.571 129.024 628.871 128.561C629.175 128.099 629.325 127.511 629.32 126.797ZM637.493 124.551V132H635.051V119.455H637.395V121.496H637.551C637.839 120.832 638.291 120.299 638.906 119.896C639.527 119.493 640.309 119.291 641.251 119.291C642.105 119.291 642.854 119.471 643.497 119.83C644.139 120.184 644.637 120.712 644.991 121.415C645.345 122.117 645.522 122.986 645.522 124.02V132H643.08V124.314C643.08 123.405 642.843 122.694 642.37 122.183C641.896 121.665 641.245 121.407 640.417 121.407C639.851 121.407 639.348 121.529 638.906 121.774C638.471 122.019 638.125 122.379 637.869 122.852C637.619 123.321 637.493 123.887 637.493 124.551ZM652.448 132.278C651.653 132.278 650.935 132.131 650.292 131.837C649.65 131.537 649.14 131.104 648.765 130.538C648.395 129.972 648.209 129.277 648.209 128.455C648.209 127.747 648.346 127.165 648.618 126.707C648.89 126.25 649.258 125.888 649.72 125.621C650.183 125.354 650.701 125.153 651.272 125.017C651.844 124.881 652.427 124.777 653.02 124.706C653.772 124.619 654.381 124.548 654.85 124.494C655.318 124.434 655.658 124.339 655.871 124.208C656.083 124.077 656.189 123.865 656.189 123.571V123.514C656.189 122.801 655.988 122.248 655.585 121.856C655.187 121.464 654.594 121.268 653.804 121.268C652.982 121.268 652.334 121.45 651.86 121.815C651.392 122.174 651.068 122.575 650.888 123.016L648.593 122.493C648.866 121.731 649.263 121.115 649.786 120.647C650.314 120.173 650.921 119.83 651.607 119.618C652.293 119.4 653.015 119.291 653.772 119.291C654.272 119.291 654.803 119.351 655.364 119.471C655.931 119.585 656.459 119.798 656.949 120.108C657.444 120.418 657.85 120.862 658.166 121.439C658.482 122.011 658.639 122.754 658.639 123.669V132H656.254V130.285H656.156C655.999 130.601 655.762 130.911 655.446 131.216C655.13 131.521 654.724 131.774 654.229 131.975C653.733 132.177 653.14 132.278 652.448 132.278ZM652.979 130.317C653.654 130.317 654.232 130.184 654.711 129.917C655.195 129.65 655.563 129.302 655.813 128.872C656.069 128.436 656.197 127.971 656.197 127.475V125.858C656.11 125.945 655.941 126.027 655.691 126.103C655.446 126.174 655.165 126.236 654.85 126.291C654.534 126.34 654.226 126.386 653.927 126.43C653.627 126.468 653.377 126.5 653.175 126.528C652.702 126.588 652.269 126.688 651.877 126.83C651.49 126.971 651.18 127.176 650.946 127.442C650.717 127.704 650.602 128.052 650.602 128.488C650.602 129.092 650.826 129.55 651.272 129.86C651.719 130.165 652.288 130.317 652.979 130.317ZM664.334 124.551V132H661.892V119.455H664.236V121.496H664.391C664.68 120.832 665.132 120.299 665.747 119.896C666.368 119.493 667.149 119.291 668.091 119.291C668.946 119.291 669.695 119.471 670.337 119.83C670.98 120.184 671.478 120.712 671.832 121.415C672.186 122.117 672.363 122.986 672.363 124.02V132H669.921V124.314C669.921 123.405 669.684 122.694 669.21 122.183C668.737 121.665 668.086 121.407 667.258 121.407C666.692 121.407 666.188 121.529 665.747 121.774C665.312 122.019 664.966 122.379 664.71 122.852C664.46 123.321 664.334 123.887 664.334 124.551Z" fill="white"/>
</g>
<g id="Frame 1239">
<rect x="1386" y="53" width="210" height="40" rx="4" fill="#3A57E8" fill-opacity="0.35"/>
<g id="Iconly/Bulk/Voice 3">
<g id="Voice 2">
<path id="Fill 1" d="M1421.83 76.2171H1422.17C1424.1 76.2171 1425.73 74.985 1426.31 73.2764C1426.39 73.0276 1426.2 72.7713 1425.93 72.7713H1424.86C1424.51 72.7713 1424.24 72.4977 1424.24 72.16C1424.24 71.8213 1424.51 71.5467 1424.86 71.5467H1425.9C1426.25 71.5467 1426.53 71.2703 1426.53 70.9287C1426.53 70.5872 1426.25 70.3108 1425.9 70.3108H1424.86C1424.51 70.3108 1424.24 70.0362 1424.24 69.6985C1424.24 69.3598 1424.51 69.0853 1424.86 69.0853H1425.9C1426.25 69.0853 1426.53 68.8088 1426.53 68.4673C1426.53 68.1258 1426.25 67.8493 1425.9 67.8493H1424.86C1424.51 67.8493 1424.24 67.5747 1424.24 67.2361C1424.24 66.8984 1424.51 66.6238 1424.86 66.6238H1425.99C1426.25 66.6238 1426.43 66.3789 1426.36 66.1311C1425.85 64.324 1424.17 63 1422.17 63H1421.83C1419.42 63 1417.47 64.9229 1417.47 67.2973V71.9198C1417.47 74.2933 1419.42 76.2171 1421.83 76.2171Z" fill="white"/>
<path id="Fill 3" opacity="0.4" d="M1429.53 70.8257C1429 70.8257 1428.56 71.2533 1428.56 71.7823C1428.56 75.3554 1425.62 78.2627 1422 78.2627C1418.38 78.2627 1415.44 75.3554 1415.44 71.7823C1415.44 71.2533 1415 70.8257 1414.47 70.8257C1413.93 70.8257 1413.5 71.2533 1413.5 71.7823C1413.5 76.0873 1416.8 79.6413 1421.03 80.1186V82.0434C1421.03 82.5715 1421.46 83.0001 1422 83.0001C1422.54 83.0001 1422.97 82.5715 1422.97 82.0434V80.1186C1427.2 79.6413 1430.5 76.0873 1430.5 71.7823C1430.5 71.2533 1430.07 70.8257 1429.53 70.8257Z" fill="white"/>
</g>
</g>
<path id="Announcments" d="M1452.25 78L1453.42 74.7045H1458.13L1459.3 78H1460.78L1456.5 66.3636H1455.05L1450.78 78H1452.25ZM1453.87 73.4545L1455.73 68.2045H1455.82L1457.69 73.4545H1453.87ZM1463.75 72.75C1463.75 71.2273 1464.69 70.3636 1465.98 70.3636C1467.22 70.3636 1467.98 71.1761 1467.98 72.5455V78H1469.32V72.4545C1469.32 70.2273 1468.13 69.1591 1466.36 69.1591C1465.04 69.1591 1464.23 69.75 1463.82 70.6364H1463.7V69.2727H1462.41V78H1463.75V72.75ZM1473.11 72.75C1473.11 71.2273 1474.05 70.3636 1475.33 70.3636C1476.58 70.3636 1477.33 71.1761 1477.33 72.5455V78H1478.68V72.4545C1478.68 70.2273 1477.49 69.1591 1475.72 69.1591C1474.4 69.1591 1473.58 69.75 1473.18 70.6364H1473.06V69.2727H1471.77V78H1473.11V72.75ZM1484.67 78.1818C1487.03 78.1818 1488.63 76.3864 1488.63 73.6818C1488.63 70.9545 1487.03 69.1591 1484.67 69.1591C1482.31 69.1591 1480.72 70.9545 1480.72 73.6818C1480.72 76.3864 1482.31 78.1818 1484.67 78.1818ZM1484.67 76.9773C1482.88 76.9773 1482.06 75.4318 1482.06 73.6818C1482.06 71.9318 1482.88 70.3636 1484.67 70.3636C1486.47 70.3636 1487.28 71.9318 1487.28 73.6818C1487.28 75.4318 1486.47 76.9773 1484.67 76.9773ZM1496.17 74.4318C1496.17 76.0682 1494.92 76.8182 1493.92 76.8182C1492.81 76.8182 1492.01 76 1492.01 74.7273V69.2727H1490.67V74.8182C1490.67 77.0455 1491.85 78.1136 1493.49 78.1136C1494.81 78.1136 1495.67 77.4091 1496.08 76.5227H1496.17V78H1497.51V69.2727H1496.17V74.4318ZM1501.31 72.75C1501.31 71.2273 1502.25 70.3636 1503.54 70.3636C1504.78 70.3636 1505.54 71.1761 1505.54 72.5455V78H1506.88V72.4545C1506.88 70.2273 1505.69 69.1591 1503.92 69.1591C1502.61 69.1591 1501.79 69.75 1501.38 70.6364H1501.26V69.2727H1499.97V78H1501.31V72.75ZM1512.87 78.1818C1514.81 78.1818 1516.08 77 1516.31 75.4545H1514.97C1514.72 76.4091 1513.92 76.9773 1512.87 76.9773C1511.28 76.9773 1510.26 75.6591 1510.26 73.6364C1510.26 71.6591 1511.31 70.3636 1512.87 70.3636C1514.06 70.3636 1514.76 71.0909 1514.97 71.8864H1516.31C1516.08 70.25 1514.69 69.1591 1512.85 69.1591C1510.49 69.1591 1508.92 71.0227 1508.92 73.6818C1508.92 76.2955 1510.42 78.1818 1512.87 78.1818ZM1518.27 78H1519.61V72.5455C1519.61 71.267 1520.54 70.3636 1521.58 70.3636C1522.6 70.3636 1523.31 71.0284 1523.31 72.0227V78H1524.68V72.3182C1524.68 71.1932 1525.38 70.3636 1526.61 70.3636C1527.56 70.3636 1528.38 70.8693 1528.38 72.1591V78H1529.72V72.1591C1529.72 70.108 1528.62 69.1591 1527.06 69.1591C1525.81 69.1591 1524.9 69.733 1524.45 70.6364H1524.36C1523.93 69.7045 1523.16 69.1591 1522.02 69.1591C1520.88 69.1591 1520.04 69.7045 1519.68 70.6364H1519.56V69.2727H1518.27V78ZM1535.83 78.1818C1537.6 78.1818 1538.9 77.2955 1539.31 75.9773L1538.01 75.6136C1537.67 76.5227 1536.88 76.9773 1535.83 76.9773C1534.26 76.9773 1533.17 75.9602 1533.11 74.0909H1539.45V73.5227C1539.45 70.2727 1537.51 69.1591 1535.7 69.1591C1533.33 69.1591 1531.76 71.0227 1531.76 73.7045C1531.76 76.3864 1533.31 78.1818 1535.83 78.1818ZM1533.11 72.9318C1533.2 71.5739 1534.16 70.3636 1535.7 70.3636C1537.15 70.3636 1538.08 71.4545 1538.08 72.9318H1533.11ZM1542.83 72.75C1542.83 71.2273 1543.77 70.3636 1545.05 70.3636C1546.3 70.3636 1547.05 71.1761 1547.05 72.5455V78H1548.39V72.4545C1548.39 70.2273 1547.21 69.1591 1545.44 69.1591C1544.12 69.1591 1543.3 69.75 1542.89 70.6364H1542.78V69.2727H1541.49V78H1542.83V72.75ZM1554.64 69.2727H1552.78V67.1818H1551.44V69.2727H1550.12V70.4091H1551.44V75.8636C1551.44 77.3864 1552.66 78.1136 1553.8 78.1136C1554.3 78.1136 1554.62 78.0227 1554.8 77.9545L1554.53 76.75C1554.41 76.7727 1554.23 76.8182 1553.94 76.8182C1553.34 76.8182 1552.78 76.6364 1552.78 75.5V70.4091H1554.64V69.2727ZM1562.68 71.2273C1562.26 69.9886 1561.32 69.1591 1559.59 69.1591C1557.75 69.1591 1556.39 70.2045 1556.39 71.6818C1556.39 72.8864 1557.1 73.6932 1558.71 74.0682L1560.16 74.4091C1561.04 74.6136 1561.46 75.0341 1561.46 75.6364C1561.46 76.3864 1560.66 77 1559.41 77C1558.31 77 1557.63 76.5284 1557.39 75.5909L1556.11 75.9091C1556.43 77.392 1557.65 78.1818 1559.43 78.1818C1561.46 78.1818 1562.84 77.0739 1562.84 75.5682C1562.84 74.3523 1562.08 73.5852 1560.52 73.2045L1559.23 72.8864C1558.19 72.6307 1557.73 72.2841 1557.73 71.6136C1557.73 70.8636 1558.52 70.3182 1559.59 70.3182C1560.76 70.3182 1561.25 70.9659 1561.48 71.5682L1562.68 71.2273Z" fill="white"/>
</g>
</g>
</g>
</g>
<defs>
<filter id="filter0_i_207_13" x="-194" y="-233" width="2180" height="2144.61" filterUnits="userSpaceOnUse" color-interpolation-filters="sRGB">
<feFlood flood-opacity="0" result="BackgroundImageFix"/>
<feBlend mode="normal" in="SourceGraphic" in2="BackgroundImageFix" result="shape"/>
<feColorMatrix in="SourceAlpha" type="matrix" values="0 0 0 0 0 0 0 0 0 0 0 0 0 0 0 0 0 0 127 0" result="hardAlpha"/>
<feMorphology radius="24" operator="erode" in="SourceAlpha" result="effect1_innerShadow_207_13"/>
<feOffset dx="24" dy="32"/>
<feGaussianBlur stdDeviation="92"/>
<feComposite in2="hardAlpha" operator="arithmetic" k2="-1" k3="1"/>
<feColorMatrix type="matrix" values="0 0 0 0 0.0235294 0 0 0 0 0.0313726 0 0 0 0 0.34902 0 0 0 0.75 0"/>
<feBlend mode="normal" in2="shape" result="effect1_innerShadow_207_13"/>
</filter>
<filter id="filter1_i_207_13" x="-194" y="5.61816" width="1694.33" height="1667.38" filterUnits="userSpaceOnUse" color-interpolation-filters="sRGB">
<feFlood flood-opacity="0" result="BackgroundImageFix"/>
<feBlend mode="normal" in="SourceGraphic" in2="BackgroundImageFix" result="shape"/>
<feColorMatrix in="SourceAlpha" type="matrix" values="0 0 0 0 0 0 0 0 0 0 0 0 0 0 0 0 0 0 127 0" result="hardAlpha"/>
<feMorphology radius="24" operator="erode" in="SourceAlpha" result="effect1_innerShadow_207_13"/>
<feOffset dx="24" dy="32"/>
<feGaussianBlur stdDeviation="92"/>
<feComposite in2="hardAlpha" operator="arithmetic" k2="-1" k3="1"/>
<feColorMatrix type="matrix" values="0 0 0 0 0.0235294 0 0 0 0 0.0313726 0 0 0 0 0.34902 0 0 0 0.75 0"/>
<feBlend mode="normal" in2="shape" result="effect1_innerShadow_207_13"/>
</filter>
<filter id="filter2_i_207_13" x="-99.9987" y="206.877" width="1442.45" height="1421.53" filterUnits="userSpaceOnUse" color-interpolation-filters="sRGB">
<feFlood flood-opacity="0" result="BackgroundImageFix"/>
<feBlend mode="normal" in="SourceGraphic" in2="BackgroundImageFix" result="shape"/>
<feColorMatrix in="SourceAlpha" type="matrix" values="0 0 0 0 0 0 0 0 0 0 0 0 0 0 0 0 0 0 127 0" result="hardAlpha"/>
<feMorphology radius="24" operator="erode" in="SourceAlpha" result="effect1_innerShadow_207_13"/>
<feOffset dx="24" dy="32"/>
<feGaussianBlur stdDeviation="92"/>
<feComposite in2="hardAlpha" operator="arithmetic" k2="-1" k3="1"/>
<feColorMatrix type="matrix" values="0 0 0 0 0.0235294 0 0 0 0 0.0313726 0 0 0 0 0.34902 0 0 0 0.75 0"/>
<feBlend mode="normal" in2="shape" result="effect1_innerShadow_207_13"/>
</filter>
<radialGradient id="paint0_radial_207_13" cx="0" cy="0" r="1" gradientUnits="userSpaceOnUse" gradientTransform="translate(831.5 117) rotate(90) scale(353.167 603.412)">
<stop stop-color="#3B8AFF"/>
<stop offset="1" stop-color="#0048B3"/>
</radialGradient>
<clipPath id="clip0_207_13">
<path d="M0 0H1663V218C1663 226.837 1655.84 234 1647 234H16C7.16341 234 0 226.837 0 218V0Z" fill="white"/>
</clipPath>
</defs>
</svg>
